<svg id="acec8210-438c-4412-90bd-13231599d2e6" data-name="Layer 1" xmlns="http://www.w3.org/2000/svg" viewBox="0 0 26 26"><defs><style>.f9c98036-2855-46b3-9041-d392796a514d{fill:#ff89b4;}</style></defs><path class="f9c98036-2855-46b3-9041-d392796a514d" d="M25.37,8.66v1a1.52,1.52,0,0,0,0,.21,8,8,0,0,1-1.05,3.31,16,16,0,0,1-2.74,3.45c-2.54,2.51-5.34,4.74-8,7.09a.76.76,0,0,1-1,0L11.66,23c-2.16-1.89-4.35-3.76-6.48-5.68a15.86,15.86,0,0,1-3.41-4.07,7.75,7.75,0,0,1-.07-8A6,6,0,0,1,5.41,2.35a5.94,5.94,0,0,1,5,.66,7.57,7.57,0,0,1,2.36,2.45l.24.39c.47-.6.88-1.23,1.39-1.77a5.89,5.89,0,0,1,6.49-1.65,6.38,6.38,0,0,1,4.28,4.83C25.25,7.72,25.29,8.19,25.37,8.66Z"/></svg>