<svg id="a888d4d6-9263-4f83-a81c-1ade5420a410" data-name="Layer 4" xmlns="http://www.w3.org/2000/svg" viewBox="0 0 56.69 50.06"><defs><style>.afb441b2-4633-4241-8ff4-1fbaf13c9e05{fill:#fff;}.fd82f892-96fe-47f2-896a-74f2032c0874{fill:#3c3c3b;}</style></defs><path class="afb441b2-4633-4241-8ff4-1fbaf13c9e05" d="M28.39,49.06a1,1,0,0,1-.59-.26c-.63-.53-1.25-1.07-1.87-1.61L21.6,43.42c-3.46-3-7-6.11-10.5-9.23a35.64,35.64,0,0,1-7.61-9.08C.24,19.28.18,13.46,3.33,7.81A12.66,12.66,0,0,1,11.24,1.6,14.28,14.28,0,0,1,15.15,1,12.4,12.4,0,0,1,21.8,3a16.19,16.19,0,0,1,5.08,5.3c.17.26.56.9.56.9l.75,1.22.89-1.14c.34-.44.67-.89,1-1.34a26,26,0,0,1,2.11-2.64A12.62,12.62,0,0,1,41.47,1,14.4,14.4,0,0,1,46,1.78c4.7,1.55,7.78,5,9.16,10.36a20.82,20.82,0,0,1,.38,2.08c0,.32.09.63.14.95v2.19a3.5,3.5,0,0,0-.07.45A17.07,17.07,0,0,1,53.34,25a34.78,34.78,0,0,1-6.1,7.68c-4.05,4-8.47,7.75-12.74,11.38-1.89,1.59-3.77,3.19-5.63,4.82A.73.73,0,0,1,28.39,49.06Z"/><path class="fd82f892-96fe-47f2-896a-74f2032c0874" d="M41.47,2h0a13.29,13.29,0,0,1,4.22.73c4.43,1.45,7.21,4.61,8.51,9.65.15.62.25,1.28.36,2,0,.3.08.6.13.89v2a4.82,4.82,0,0,0-.08.52,16.23,16.23,0,0,1-2.14,6.75,33.64,33.64,0,0,1-5.93,7.46c-4,4-8.43,7.71-12.69,11.33-1.8,1.52-3.66,3.1-5.49,4.69-.6-.5-1.18-1-1.77-1.52l-4.33-3.76c-3.46-3-7-6.12-10.49-9.23a34.84,34.84,0,0,1-7.41-8.82C1.25,19,1.2,13.7,4.2,8.3a11.74,11.74,0,0,1,7.31-5.74A13.52,13.52,0,0,1,15.15,2a11.25,11.25,0,0,1,6.12,1.81,15.32,15.32,0,0,1,4.76,5l.4.64.16.25,1.51,2.45,1.77-2.27c.35-.45.68-.91,1-1.37a24.29,24.29,0,0,1,2-2.54,11.66,11.66,0,0,1,8.55-4m0-2a13.57,13.57,0,0,0-10,4.6c-1.17,1.23-2.11,2.68-3.18,4.06l-.56-.91a17.44,17.44,0,0,0-5.4-5.61A13.33,13.33,0,0,0,15.15,0,15.42,15.42,0,0,0,11,.63a13.73,13.73,0,0,0-8.51,6.7c-3.38,6.08-3.2,12.22.17,18.27a36.85,36.85,0,0,0,7.81,9.33c4.89,4.41,9.89,8.69,14.84,13l1.89,1.62a2,2,0,0,0,1.23.49,1.72,1.72,0,0,0,1.14-.46c6.16-5.38,12.58-10.48,18.41-16.24a35.48,35.48,0,0,0,6.27-7.9,18.43,18.43,0,0,0,2.4-7.57,4,4,0,0,1,.08-.48V15.08c-.18-1.06-.29-2.15-.56-3.19C54.75,6.53,51.66,2.59,46.32.83A15.31,15.31,0,0,0,41.47,0Z"/></svg>