<svg id="a6210f43-b4ab-4d93-b286-a71d927ec06c" data-name="Layer 1" xmlns="http://www.w3.org/2000/svg" viewBox="0 0 50 50"><defs><style>.b71189e7-3915-4430-a84c-05ffdd7f11c8{fill:#3c3c3b;}</style></defs><path class="b71189e7-3915-4430-a84c-05ffdd7f11c8" d="M25,.06v2a22.94,22.94,0,0,1,.05,45.88H25A22.94,22.94,0,0,1,25,2.06H25v-2m0,0h-.06A24.94,24.94,0,0,0,25,49.94h.06A24.94,24.94,0,0,0,25,.06Z"/><path class="b71189e7-3915-4430-a84c-05ffdd7f11c8" d="M32.17,10.85a5,5,0,0,1,1.73.61,4.29,4.29,0,0,1,2.15,3.47c.11,1.32,0,2.64.05,4,0,1,0,2,0,3a1.3,1.3,0,0,1-.39,1,1.1,1.1,0,0,1-1.81-.58,2.51,2.51,0,0,1-.06-.55c0-2.11,0-4.23,0-6.34a2.26,2.26,0,0,0-2.34-2.34l-13.3,0A2.23,2.23,0,0,0,16,14.8a2,2,0,0,0,0,.49q0,9.72,0,19.44a2.19,2.19,0,0,0,2.29,2.19c1.18,0,2.37,0,3.56,0a1.1,1.1,0,0,1,1.11,1.35,1.09,1.09,0,0,1-1,.86c-1.36,0-2.72.05-4.08,0A4.39,4.39,0,0,1,13.74,35c-.07-1.33,0-2.67-.05-4q0-7.62,0-15.25a4.82,4.82,0,0,1,.95-3.13A4.44,4.44,0,0,1,17.32,11l.23-.07Z"/><path class="b71189e7-3915-4430-a84c-05ffdd7f11c8" d="M39,29.08a3.2,3.2,0,0,1-.91,2.36q-3,3-6,6a1.61,1.61,0,0,1-.66.4c-1.44.4-2.88.81-4.33,1.2a1.1,1.1,0,0,1-1.44-1,1.17,1.17,0,0,1,.07-.49c.41-1.39.83-2.78,1.25-4.17a1.25,1.25,0,0,1,.34-.56c2-2,4-4.08,6.08-6.09A3.09,3.09,0,0,1,36.78,26,3.21,3.21,0,0,1,39,28.57,3.62,3.62,0,0,1,39,29.08ZM28.66,36.33l.1,0,1.77-.49a.54.54,0,0,0,.26-.16l3.75-3.76c.13-.13.13-.21,0-.34-.39-.37-.78-.75-1.15-1.14-.18-.19-.29-.18-.47,0q-1.82,1.85-3.65,3.67a.86.86,0,0,0-.2.26c-.18.61-.37,1.21-.55,1.82C28.49,36.27,28.52,36.34,28.66,36.33Zm8.13-7.18a1,1,0,0,0-.71-1,1.11,1.11,0,0,0-1.22.33c-.1.11-.07.19,0,.28L36.15,30c.1.1.17.08.27,0A1.1,1.1,0,0,0,36.79,29.15Z"/><path class="b71189e7-3915-4430-a84c-05ffdd7f11c8" d="M24.9,17.48h5.6a1.11,1.11,0,0,1,1.14,1.35,1.13,1.13,0,0,1-1,.86h-.13l-11.3,0a1.11,1.11,0,1,1,0-2.21H24.9Z"/><path class="b71189e7-3915-4430-a84c-05ffdd7f11c8" d="M24.9,21.9h5.63a1.09,1.09,0,0,1,1.11,1.36,1.1,1.1,0,0,1-1.05.85H29.4l-10.09,0a1.11,1.11,0,1,1-.06-2.21H24.9Z"/><path class="b71189e7-3915-4430-a84c-05ffdd7f11c8" d="M22.67,28.53H19.25a1.1,1.1,0,1,1,0-2.2l4.35,0H26a1.11,1.11,0,1,1,0,2.21Z"/></svg>