<svg id="b9137747-8d7c-4358-adef-20235b1e5f43" data-name="Layer 1" xmlns="http://www.w3.org/2000/svg" viewBox="0 0 50 50"><defs><style>.bdd6edd6-1001-493b-ba50-340844792bc2{fill:#fff;}.b23cd84b-b931-4529-a03f-6afb85e911be{fill:#3c3c3b;}.e6bfa803-748f-4866-b06e-30ecd078028b{fill:#95c11f;}</style></defs><circle class="bdd6edd6-1001-493b-ba50-340844792bc2" cx="25" cy="25" r="24.06"/><path class="b23cd84b-b931-4529-a03f-6afb85e911be" d="M25,0V2a23,23,0,0,1,.05,46H25A23,23,0,0,1,25,2H25V0h-.06A25,25,0,0,0,25,50h.06A25,25,0,0,0,25,0Z"/><path class="b23cd84b-b931-4529-a03f-6afb85e911be" d="M21.19,33.1a1,1,0,0,1-1.05,1H16.51v3.63a1.05,1.05,0,0,1-2.1,0V34.16H10.78a1,1,0,0,1-1-1,1.06,1.06,0,0,1,1-1.06h3.63V28.44a1.05,1.05,0,1,1,2.1,0v3.63h3.62A1.06,1.06,0,0,1,21.19,33.1Z"/><path class="b23cd84b-b931-4529-a03f-6afb85e911be" d="M15.44,24a9.08,9.08,0,1,0,9.1,9.06A9.09,9.09,0,0,0,15.44,24Zm0,16.13a7.05,7.05,0,1,1,7-7.06A7,7,0,0,1,15.48,40.16Z"/><path class="e6bfa803-748f-4866-b06e-30ecd078028b" d="M15.44,26.06a7.05,7.05,0,1,0,7.07,7A7.05,7.05,0,0,0,15.44,26.06Zm4.7,8.09H16.51v3.63a1.05,1.05,0,0,1-2.1,0V34.16H10.78a1,1,0,0,1-1-1,1.06,1.06,0,0,1,1-1.06h3.63V28.44a1.05,1.05,0,1,1,2.1,0v3.63h3.62a1.05,1.05,0,1,1,0,2.1Z"/><path class="b23cd84b-b931-4529-a03f-6afb85e911be" d="M40,26.32a6.37,6.37,0,0,0-3.91,1.05A6.5,6.5,0,0,0,33.15,31a3.63,3.63,0,0,0,.59,3.7A4.07,4.07,0,0,0,36.69,36a6.61,6.61,0,0,0,4.59-1.68,6.31,6.31,0,0,0,2.1-3.1,3.73,3.73,0,0,0-.82-3.82A4,4,0,0,0,40,26.32Zm1.33,4.31a4.19,4.19,0,0,1-1.41,2.06,4.53,4.53,0,0,1-3.15,1.18,2,2,0,0,1-1.48-.67c-.37-.42-.18-1.23-.07-1.56a4.38,4.38,0,0,1,2-2.45,4.26,4.26,0,0,1,2.61-.72,1.89,1.89,0,0,1,1.22.48A1.63,1.63,0,0,1,41.32,30.63Z"/><path class="b23cd84b-b931-4529-a03f-6afb85e911be" d="M29.84,19.72a5.92,5.92,0,0,0-3.71-1.2,7.12,7.12,0,0,0-2.45.57,7.67,7.67,0,0,1-3.39.63,18.93,18.93,0,0,0-3.36,0,5.26,5.26,0,0,0-3.66,1.71l-.13.14a4.54,4.54,0,0,0-.61.71,6.49,6.49,0,0,0-.83,1.87,9.71,9.71,0,0,1,2.63-.69h0a2.44,2.44,0,0,1,.32-.36l.21-.21.05-.06a3.17,3.17,0,0,1,2.26-1,17.58,17.58,0,0,1,3,0,9.89,9.89,0,0,0,4.32-.78,4.77,4.77,0,0,1,1.71-.42,3.79,3.79,0,0,1,2.39.79,6.45,6.45,0,0,1,.78.66,4.44,4.44,0,0,1,1.34,2.72,4.1,4.1,0,0,1-.37,2,10.35,10.35,0,0,0-.79,4.48,19.82,19.82,0,0,1,0,3.25,3.73,3.73,0,0,1-3.14,3.13,4.08,4.08,0,0,1-2.18-.19l-.07,0a10,10,0,0,1-1.19,1.82,4.46,4.46,0,0,0,.5.22,6.36,6.36,0,0,0,3.28.31,5.84,5.84,0,0,0,4.93-5,22.26,22.26,0,0,0,.06-3.61,8,8,0,0,1,.64-3.56,6.34,6.34,0,0,0,.51-3A6.8,6.8,0,0,0,29.84,19.72Z"/><path class="b23cd84b-b931-4529-a03f-6afb85e911be" d="M31.09,18.05a6.7,6.7,0,0,0,3.51-2,6.31,6.31,0,0,0,1.92-4.4,3.66,3.66,0,0,0-1-2.73,4.2,4.2,0,0,0-.94-.68A4,4,0,0,0,31.86,8a6.83,6.83,0,0,0-4,2.55,6.63,6.63,0,0,0-1.39,3.09,4,4,0,0,0,1,3.52A3.91,3.91,0,0,0,31.09,18.05Zm-2.48-4.11a4.36,4.36,0,0,1,.94-2.09,4.59,4.59,0,0,1,2.75-1.79,1.72,1.72,0,0,1,1.26.1,1.63,1.63,0,0,1,.43.3,1.5,1.5,0,0,1,.38,1.18,4.09,4.09,0,0,1-1.3,2.9,4.65,4.65,0,0,1-2.39,1.4A1.82,1.82,0,0,1,29,15.58,1.8,1.8,0,0,1,28.61,13.94Z"/><path class="b23cd84b-b931-4529-a03f-6afb85e911be" d="M33.52,19.76a3.94,3.94,0,0,0,.86,4.15,4.05,4.05,0,0,0,3.62.93A6.83,6.83,0,0,0,41.53,23a6.91,6.91,0,0,0,1.95-3.34A4,4,0,0,0,43,16.46a4.56,4.56,0,0,0-.51-.62,3.65,3.65,0,0,0-3.32-.95A6.85,6.85,0,0,0,33.52,19.76Zm2,.71a4.73,4.73,0,0,1,4-3.46,1.52,1.52,0,0,1,1.46.35h0a2,2,0,0,1,.25.31,1.77,1.77,0,0,1,.14,1.52,4.93,4.93,0,0,1-3.73,3.53,2.05,2.05,0,0,1-1.75-.34,1.56,1.56,0,0,1-.34-.52A1.8,1.8,0,0,1,35.55,20.47Z"/><path class="b23cd84b-b931-4529-a03f-6afb85e911be" d="M16.41,17.43a3.62,3.62,0,0,0,2.76,1A5.67,5.67,0,0,0,23,16.58a6.92,6.92,0,0,0,2.1-4.89A4.08,4.08,0,0,0,24,8.9a4,4,0,0,0-4.56-.68,6.83,6.83,0,0,0-2.8,2.3,6.39,6.39,0,0,0-1.31,4.71A3.82,3.82,0,0,0,16.41,17.43Zm2-5.65a4.72,4.72,0,0,1,1.92-1.59,1.91,1.91,0,0,1,2.15.21,1.83,1.83,0,0,1,.43,1.27,4.7,4.7,0,0,1-1.48,3.4,3.47,3.47,0,0,1-2.36,1.2,1.55,1.55,0,0,1-1.15-.37,1.61,1.61,0,0,1-.42-1A4.21,4.21,0,0,1,18.42,11.78Z"/></svg>