<svg id="a442d646-573d-4324-b563-91c3770c7fb3" data-name="Layer 1" xmlns="http://www.w3.org/2000/svg" viewBox="0 0 50 50"><defs><style>.a5bf07bd-b98e-4b11-882b-c0d98f5db19d{fill:#fff;}.a1f061eb-c921-49af-85d9-0fd904eb8fb6{fill:#3c3c3b;}.b2fd5613-566e-40a4-a3cc-107c000e14fa{fill:#e30613;}</style></defs><circle class="a5bf07bd-b98e-4b11-882b-c0d98f5db19d" cx="25" cy="25" r="24.06"/><path class="a1f061eb-c921-49af-85d9-0fd904eb8fb6" d="M25,0V2a23,23,0,0,1,.05,46H25A23,23,0,0,1,25,2H25V0m0,0h-.06A25,25,0,0,0,25,50h.06A25,25,0,0,0,25,0Z"/><path class="a1f061eb-c921-49af-85d9-0fd904eb8fb6" d="M21.19,33.1a1,1,0,0,1-1.05,1l-9.35,0a1.05,1.05,0,1,1,0-2.1l9.35,0A1.06,1.06,0,0,1,21.19,33.1Z"/><path class="a1f061eb-c921-49af-85d9-0fd904eb8fb6" d="M15.44,24a9.08,9.08,0,1,0,9.1,9.06A9.09,9.09,0,0,0,15.44,24Zm0,16.13a7.05,7.05,0,1,1,7-7.07A7.05,7.05,0,0,1,15.47,40.16Z"/><path class="b2fd5613-566e-40a4-a3cc-107c000e14fa" d="M15.44,26.06a7.05,7.05,0,1,0,7.07,7A7.05,7.05,0,0,0,15.44,26.06Zm4.7,8.09-9.35,0a1.05,1.05,0,1,1,0-2.1l9.35,0a1.05,1.05,0,1,1,0,2.1Z"/><path class="a1f061eb-c921-49af-85d9-0fd904eb8fb6" d="M40,26.32a6.37,6.37,0,0,0-3.91,1.05A6.5,6.5,0,0,0,33.15,31a3.63,3.63,0,0,0,.59,3.7A4.09,4.09,0,0,0,36.69,36a6.61,6.61,0,0,0,4.59-1.68,6.3,6.3,0,0,0,2.1-3.11,3.72,3.72,0,0,0-.82-3.81A4,4,0,0,0,40,26.32Zm1.33,4.31a4.19,4.19,0,0,1-1.41,2.06,4.53,4.53,0,0,1-3.15,1.18,2,2,0,0,1-1.48-.67c-.37-.42-.17-1.23-.07-1.56a4.38,4.38,0,0,1,2-2.45,4.26,4.26,0,0,1,2.61-.72,1.89,1.89,0,0,1,1.22.48A1.63,1.63,0,0,1,41.32,30.63Z"/><path class="a1f061eb-c921-49af-85d9-0fd904eb8fb6" d="M29.84,19.71a6,6,0,0,0-3.71-1.19,6.9,6.9,0,0,0-2.45.57,7.65,7.65,0,0,1-3.38.63,19,19,0,0,0-3.37,0,5.22,5.22,0,0,0-3.65,1.71l-.14.14a4.05,4.05,0,0,0-.6.71,6,6,0,0,0-.83,1.87,9.55,9.55,0,0,1,2.62-.69h0a2.52,2.52,0,0,1,.33-.37l.2-.2.05-.06a3.17,3.17,0,0,1,2.26-1,16.61,16.61,0,0,1,3,0,9.89,9.89,0,0,0,4.32-.78,4.82,4.82,0,0,1,1.71-.42,3.79,3.79,0,0,1,2.39.79,6.45,6.45,0,0,1,.78.66,4.42,4.42,0,0,1,1.34,2.72,4,4,0,0,1-.37,2,10.42,10.42,0,0,0-.79,4.49,19.82,19.82,0,0,1,0,3.25,3.73,3.73,0,0,1-3.14,3.13,4.18,4.18,0,0,1-2.18-.19l-.07,0a9.75,9.75,0,0,1-1.19,1.83,4.46,4.46,0,0,0,.5.22,6.36,6.36,0,0,0,3.28.31,5.84,5.84,0,0,0,4.94-5,22.16,22.16,0,0,0,.05-3.61,8.06,8.06,0,0,1,.64-3.57,6.27,6.27,0,0,0,.51-3A6.84,6.84,0,0,0,29.84,19.71Z"/><path class="a1f061eb-c921-49af-85d9-0fd904eb8fb6" d="M31.1,18.05a6.74,6.74,0,0,0,3.5-2,6.31,6.31,0,0,0,1.92-4.4,3.66,3.66,0,0,0-1-2.73,4.2,4.2,0,0,0-.94-.68A4,4,0,0,0,31.86,8a6.78,6.78,0,0,0-4,2.55,6.57,6.57,0,0,0-1.38,3.09,4,4,0,0,0,1,3.52A3.94,3.94,0,0,0,31.1,18.05Zm-2.49-4.11a4.36,4.36,0,0,1,.94-2.09,4.66,4.66,0,0,1,2.75-1.8,1.71,1.71,0,0,1,1.69.41,1.46,1.46,0,0,1,.38,1.18,4.13,4.13,0,0,1-1.3,2.9,4.65,4.65,0,0,1-2.39,1.4A1.82,1.82,0,0,1,29,15.58,1.83,1.83,0,0,1,28.61,13.94Z"/><path class="a1f061eb-c921-49af-85d9-0fd904eb8fb6" d="M33.52,19.76a4,4,0,0,0,.07,2.95,3.91,3.91,0,0,0,.79,1.2,4.05,4.05,0,0,0,3.62.93,7.08,7.08,0,0,0,5.48-5.18,3.8,3.8,0,0,0-1-3.82,3.65,3.65,0,0,0-3.32-.95A6.85,6.85,0,0,0,33.52,19.76Zm2,.7a4.73,4.73,0,0,1,4-3.45,1.52,1.52,0,0,1,1.46.35h0a2.48,2.48,0,0,1,.25.3,1.8,1.8,0,0,1,.14,1.53,4.93,4.93,0,0,1-3.73,3.53,2.06,2.06,0,0,1-1.75-.34,1.56,1.56,0,0,1-.34-.52A1.83,1.83,0,0,1,35.55,20.46Z"/><path class="a1f061eb-c921-49af-85d9-0fd904eb8fb6" d="M16.41,17.42a3.59,3.59,0,0,0,2.76,1A5.65,5.65,0,0,0,23,16.58a6.92,6.92,0,0,0,2.1-4.89A4,4,0,0,0,24,8.9a4,4,0,0,0-4.56-.68,6.81,6.81,0,0,0-2.8,2.3,6.33,6.33,0,0,0-1.3,4.7A3.7,3.7,0,0,0,16.41,17.42Zm2-5.64a4.68,4.68,0,0,1,1.93-1.59,1.92,1.92,0,0,1,2.15.21,1.93,1.93,0,0,1,.43,1.27,4.75,4.75,0,0,1-1.49,3.4,3.45,3.45,0,0,1-2.36,1.2,1.55,1.55,0,0,1-1.15-.37,1.61,1.61,0,0,1-.42-1A4.21,4.21,0,0,1,18.42,11.78Z"/></svg>