<svg id="e5cc3fb4-b38f-45bb-9892-b9a835c0b866" data-name="Layer 1" xmlns="http://www.w3.org/2000/svg" viewBox="0 0 50 50"><defs><style>.f854838c-5e8c-4294-bdae-f29efe06b8fd{fill:#fff;}.ef01a898-ed06-4e14-adb6-64506fb94142{fill:#3c3c3b;}</style></defs><circle class="f854838c-5e8c-4294-bdae-f29efe06b8fd" cx="24.95" cy="25" r="24.06"/><path class="ef01a898-ed06-4e14-adb6-64506fb94142" d="M25,.06v2a22.94,22.94,0,0,1,.05,45.88H25A22.94,22.94,0,0,1,25,2.06H25v-2m0,0h-.06A24.94,24.94,0,0,0,25,49.94h.06A24.94,24.94,0,0,0,25,.06Z"/><path class="ef01a898-ed06-4e14-adb6-64506fb94142" d="M9.19,39.05h0A1.18,1.18,0,0,0,10.36,38a14.68,14.68,0,0,1,29.28-.06A1.18,1.18,0,0,0,40.81,39h0A1.16,1.16,0,0,0,42,37.74,17,17,0,0,0,30.17,22.8a9.7,9.7,0,1,0-10.41,0A17.06,17.06,0,0,0,8,37.81,1.16,1.16,0,0,0,9.19,39.05Zm8.4-24.4A7.36,7.36,0,1,1,25,22,7.37,7.37,0,0,1,17.59,14.65Z"/></svg>