<svg id="bab96727-e77a-45fe-a33d-4509b21de4a3" data-name="finale" xmlns="http://www.w3.org/2000/svg" viewBox="0 0 155.47 76.3"><defs><style>.fbd7c7e1-78ff-46a0-8a9e-f490a609f277{fill:#ff89b4;}.b31ff7a8-545d-46fe-8dcb-5951d1c58ae8{fill:#3c3c3b;}.e8a0e922-0197-41df-b610-fcd038e0a02c{fill:#0febe3;}.bbf298dc-5d53-4090-9b2b-eafa347c5b43{fill:#fcbd04;}.ac1305ad-41bb-4143-9a1e-9fc5c28a89ae{fill:#fff;}.f8c154ad-5cac-4a15-ade2-626c8f552545{fill:#606060;}</style></defs><path class="fbd7c7e1-78ff-46a0-8a9e-f490a609f277" d="M133,70.18a15.21,15.21,0,0,1-11.3-4.81A16,16,0,0,1,117,53.94a17.53,17.53,0,0,1,1.31-6.77,15.85,15.85,0,0,1,3.5-5.31,16.32,16.32,0,0,1,5-3.36,14.77,14.77,0,0,1,5.86-1.23,16.1,16.1,0,0,1,16,16.26,16.75,16.75,0,0,1-4.53,11.77A14.81,14.81,0,0,1,133,70.18Zm-.13-24.37a7,7,0,0,0-5,2.2,7.55,7.55,0,0,0-2.25,5.71,7.5,7.5,0,0,0,2.27,5.72,6.95,6.95,0,0,0,10.09.06,7.44,7.44,0,0,0,2.24-5.73A7.65,7.65,0,0,0,137.88,48,7.17,7.17,0,0,0,132.82,45.81ZM98.47,70.18a15.21,15.21,0,0,1-11.3-4.81,16,16,0,0,1-4.65-11.43,17.53,17.53,0,0,1,1.31-6.77,15.85,15.85,0,0,1,3.5-5.31,16.44,16.44,0,0,1,5-3.36,14.81,14.81,0,0,1,5.86-1.23,16.1,16.1,0,0,1,16,16.26,16.75,16.75,0,0,1-4.53,11.77A14.81,14.81,0,0,1,98.47,70.18Zm-.13-24.37a7,7,0,0,0-5,2.2,7.55,7.55,0,0,0-2.25,5.71,7.5,7.5,0,0,0,2.27,5.72,6.95,6.95,0,0,0,10.09.06,7.44,7.44,0,0,0,2.24-5.73A7.65,7.65,0,0,0,103.4,48,7.17,7.17,0,0,0,98.34,45.81ZM59.74,69.75a4.24,4.24,0,0,1-2.12-.57,4.08,4.08,0,0,1-2.13-3.8,3.37,3.37,0,0,1,.62-2.09L68.58,46H59.91A14.88,14.88,0,0,1,58.34,46a4.83,4.83,0,0,1-1.3-.4c-1-.5-1.55-1.73-1.55-3.66s.47-3.26,1.43-3.76a3.74,3.74,0,0,1,1.29-.46,12.23,12.23,0,0,1,1.57-.07h17a4.25,4.25,0,0,1,2.12.58,4.1,4.1,0,0,1,1.57,1.55A4.44,4.44,0,0,1,81,42a3.45,3.45,0,0,1-.61,2.13L67.92,61.38h9.47a5.73,5.73,0,0,1,2.64.47,2.63,2.63,0,0,1,1.26,1.45,6.42,6.42,0,0,1,.31,2.12,7.19,7.19,0,0,1-.24,2,3.67,3.67,0,0,1-.59,1.27,2.17,2.17,0,0,1-1.15.73,7,7,0,0,1-2.32.28Z"/><path class="b31ff7a8-545d-46fe-8dcb-5951d1c58ae8" d="M131.54,70.64a15.63,15.63,0,0,1-11.63-5,16.38,16.38,0,0,1-4.78-11.75A18.08,18.08,0,0,1,116.47,47a16.39,16.39,0,0,1,3.6-5.46,16.82,16.82,0,0,1,5.17-3.46,15.16,15.16,0,0,1,6-1.26,16.56,16.56,0,0,1,16.45,16.72,17.13,17.13,0,0,1-4.66,12.09A15.23,15.23,0,0,1,131.54,70.64Zm-.25-32.9a14.26,14.26,0,0,0-5.68,1.19,16.18,16.18,0,0,0-4.88,3.26,15.29,15.29,0,0,0-3.39,5.16,17,17,0,0,0-1.27,6.59A15.49,15.49,0,0,0,120.58,65a14.74,14.74,0,0,0,11,4.67A14.33,14.33,0,0,0,142.4,65a16.28,16.28,0,0,0,4.41-11.45,15.66,15.66,0,0,0-15.52-15.79ZM97.06,70.64a15.63,15.63,0,0,1-11.63-5,16.38,16.38,0,0,1-4.78-11.75A18.08,18.08,0,0,1,82,47a16.26,16.26,0,0,1,3.61-5.46,16.77,16.77,0,0,1,5.16-3.46,15.16,15.16,0,0,1,6-1.26,16.56,16.56,0,0,1,16.45,16.72,17.13,17.13,0,0,1-4.66,12.09A15.23,15.23,0,0,1,97.06,70.64Zm-.25-32.9a14.26,14.26,0,0,0-5.68,1.19,16.18,16.18,0,0,0-4.88,3.26,15.29,15.29,0,0,0-3.39,5.16,17.15,17.15,0,0,0-1.27,6.59A15.49,15.49,0,0,0,86.1,65a14.75,14.75,0,0,0,11,4.67A14.33,14.33,0,0,0,107.92,65a16.28,16.28,0,0,0,4.41-11.45A15.66,15.66,0,0,0,96.81,37.74ZM75.9,70.22H58.34A4.63,4.63,0,0,1,56,69.58a4.5,4.5,0,0,1-2.36-4.2A3.89,3.89,0,0,1,54.33,63L66.26,46.49H58.5a13.21,13.21,0,0,1-1.63-.07A5.38,5.38,0,0,1,55.44,46c-1.21-.59-1.82-2-1.82-4.09s.55-3.59,1.68-4.18a4.11,4.11,0,0,1,1.45-.5,12.79,12.79,0,0,1,1.63-.08h17a4.8,4.8,0,0,1,4.1,2.36A5,5,0,0,1,80.07,42a3.92,3.92,0,0,1-.71,2.41L67.43,60.92H76a6.17,6.17,0,0,1,2.87.52,3.06,3.06,0,0,1,1.47,1.7,6.56,6.56,0,0,1,.34,2.28,7.77,7.77,0,0,1-.25,2.18A4.14,4.14,0,0,1,79.73,69a2.57,2.57,0,0,1-1.36.89A7.78,7.78,0,0,1,75.9,70.22ZM58.38,38.08a13.6,13.6,0,0,0-1.51.06,3.6,3.6,0,0,0-1.14.41c-.79.41-1.17,1.51-1.17,3.35s.43,2.83,1.27,3.23a4.13,4.13,0,0,0,1.17.36,12.84,12.84,0,0,0,1.5.07h9.59l-13,18a3,3,0,0,0-.52,1.82,3.58,3.58,0,0,0,1.88,3.39,3.81,3.81,0,0,0,1.9.51H75.9A6.74,6.74,0,0,0,78.06,69h0a1.68,1.68,0,0,0,.9-.56,3.56,3.56,0,0,0,.52-1.12,7.13,7.13,0,0,0,.21-1.92,5.73,5.73,0,0,0-.28-2,2.18,2.18,0,0,0-1-1.2A5.37,5.37,0,0,0,76,61.85H65.6l13-18A3,3,0,0,0,79.13,42a4.08,4.08,0,0,0-.49-2,3.91,3.91,0,0,0-3.29-1.89Zm73.08,24a7.49,7.49,0,0,1-5.38-2.33,8,8,0,0,1-2.41-6.06,8,8,0,0,1,2.39-6,7.45,7.45,0,0,1,5.36-2.33,7.65,7.65,0,0,1,5.38,2.31,8.14,8.14,0,0,1,2.4,6.12,7.92,7.92,0,0,1-2.38,6.07A7.52,7.52,0,0,1,131.46,62.11Zm0-15.83a6.52,6.52,0,0,0-4.71,2.06,7.1,7.1,0,0,0-2.1,5.38,7.08,7.08,0,0,0,2.12,5.39,6.49,6.49,0,0,0,9.44,0,7,7,0,0,0,2.1-5.39,7.18,7.18,0,0,0-2.12-5.44A6.73,6.73,0,0,0,131.42,46.28ZM97,62.11a7.49,7.49,0,0,1-5.38-2.33,8,8,0,0,1-2.41-6.06,8,8,0,0,1,2.39-6,7.45,7.45,0,0,1,5.36-2.33,7.65,7.65,0,0,1,5.38,2.31,8.11,8.11,0,0,1,2.41,6.12,7.89,7.89,0,0,1-2.39,6.07A7.52,7.52,0,0,1,97,62.11Zm0-15.83a6.52,6.52,0,0,0-4.71,2.06,7.1,7.1,0,0,0-2.1,5.38,7.08,7.08,0,0,0,2.12,5.39,6.5,6.5,0,0,0,9.45,0,7,7,0,0,0,2.09-5.39,7.18,7.18,0,0,0-2.12-5.44A6.73,6.73,0,0,0,96.94,46.28Z"/><path class="e8a0e922-0197-41df-b610-fcd038e0a02c" d="M55.09,9.63a12.1,12.1,0,0,1,0-1.24,3.05,3.05,0,0,1,.34-1c.33-.65,1.26-1,2.79-1s2.66.44,3,1.33a7.07,7.07,0,0,1,.18,1.86v20a9.28,9.28,0,0,1-.06,1.26,2.6,2.6,0,0,1-.34.93c-.33.65-1.26,1-2.79,1s-2.64-.45-2.93-1.36a5.8,5.8,0,0,1-.21-1.83ZM76.2,13.86a7.57,7.57,0,0,1,6,2.75,9.89,9.89,0,0,1,2.38,6.69v6.31a9.35,9.35,0,0,1-.06,1.24,3,3,0,0,1-.3.92q-.51,1-2.79,1c-1.7,0-2.67-.44-2.93-1.32a5.66,5.66,0,0,1-.22-1.83V23.26a2.88,2.88,0,0,0-3.09-3.12,3.12,3.12,0,0,0-2.29.86A3,3,0,0,0,72,23.26v6.35a12.1,12.1,0,0,1,0,1.24,2.68,2.68,0,0,1-.34.92q-.47,1-2.76,1c-1.5,0-2.42-.32-2.75-1a3.07,3.07,0,0,1-.3-1,9.17,9.17,0,0,1-.06-1.23V16.88a9.14,9.14,0,0,1,.06-1.21,2.45,2.45,0,0,1,.34-.91c.33-.6,1.25-.9,2.75-.9s2.35.28,2.68.83a2.81,2.81,0,0,1,.36,1.47,3.78,3.78,0,0,1,.64-.72,6.54,6.54,0,0,1,1-.75A4.67,4.67,0,0,1,76.2,13.86ZM89,31.08a1.47,1.47,0,0,1-.68-1.36,5.84,5.84,0,0,1,1.36-2.83,1.38,1.38,0,0,1,1.27-.61,5.23,5.23,0,0,1,2.37.87A5.49,5.49,0,0,0,96,28c1.46,0,2.18-.28,2.18-.86s-.79-.79-2.39-1a11.77,11.77,0,0,1-4.47-1.69,4.74,4.74,0,0,1-1.72-2A7.38,7.38,0,0,1,89,19.17q0-5.67,7.76-5.67a12.56,12.56,0,0,1,5.22,1.22c.84.39,1.26.86,1.26,1.44a4.27,4.27,0,0,1-.79,2.11c-.53.84-1.06,1.26-1.61,1.26A4.75,4.75,0,0,1,99.2,19a5.94,5.94,0,0,0-2.52-.54c-1.41,0-2.11.27-2.11.79,0,.72.81,1.19,2.43,1.4A13.21,13.21,0,0,1,101.58,22a4,4,0,0,1,1.73,1.74,6.18,6.18,0,0,1,.7,3.1,6.67,6.67,0,0,1-.7,3.18,4.48,4.48,0,0,1-2,1.95,13.11,13.11,0,0,1-5.74,1.11A12.23,12.23,0,0,1,89,31.08Zm30.63-10.87-2.33-.14V25a2.5,2.5,0,0,0,.31,1.4,1.29,1.29,0,0,0,1.14.43c.56,0,1,0,1.29,0a2.67,2.67,0,0,1,1,.34c.55.32.82,1.12.82,2.41,0,1.51-.33,2.43-1,2.76a3.36,3.36,0,0,1-1,.31,11.49,11.49,0,0,1-1.2.05A8.33,8.33,0,0,1,113,31.08c-1.28-1.12-1.93-3-1.93-5.7V20.07a9.52,9.52,0,0,1-1.46.11,1.67,1.67,0,0,1-1.31-.61,3.22,3.22,0,0,1-.52-2.08,9,9,0,0,1,.18-2.14,2,2,0,0,1,.5-.95,2.2,2.2,0,0,1,1.43-.47l1.18.15v-3.7a9,9,0,0,1,.06-1.22,2.05,2.05,0,0,1,.34-.86c.3-.6,1.22-.9,2.75-.9s2.59.45,2.9,1.33a7.19,7.19,0,0,1,.17,1.83v3.52c1-.1,1.85-.15,2.38-.15a9.1,9.1,0,0,1,1.22.06,2.81,2.81,0,0,1,1,.34q.93.47.93,2.76c0,1.51-.32,2.43-1,2.76a3.36,3.36,0,0,1-1,.31A11.87,11.87,0,0,1,119.62,20.21Zm19.69-4.34q.21-2,2.82-2a7.19,7.19,0,0,1,2.08.22,1.5,1.5,0,0,1,.95.75,3.21,3.21,0,0,1,.32.95,12.24,12.24,0,0,1,.05,1.24V29.58a11.87,11.87,0,0,1-.05,1.23,3.42,3.42,0,0,1-.31,1c-.33.62-1.15.93-2.45.93a4.73,4.73,0,0,1-2.61-.49,2,2,0,0,1-.77-1.41q-1.32,1.9-4.41,1.9a7.78,7.78,0,0,1-5.74-2.84,9.47,9.47,0,0,1,0-13.15,8,8,0,0,1,5.85-2.81,5.53,5.53,0,0,1,2.22.43,4.12,4.12,0,0,1,2,1.54Zm-6.51,7.46a3,3,0,0,0,.93,2.14,3,3,0,0,0,2.25,1,2.83,2.83,0,0,0,2.2-1,3.1,3.1,0,0,0,.88-2.13,3.31,3.31,0,0,0-.84-2.17,2.79,2.79,0,0,0-2.26-1,2.87,2.87,0,0,0-2.28,1A3.22,3.22,0,0,0,132.8,23.33Z"/><path class="b31ff7a8-545d-46fe-8dcb-5951d1c58ae8" d="M95.2,33.63a12.79,12.79,0,0,1-6.92-2.1h0a2,2,0,0,1-.93-1.81,6.11,6.11,0,0,1,1.46-3.14,1.89,1.89,0,0,1,1.7-.84,5.67,5.67,0,0,1,2.65,1,5,5,0,0,0,2.45.8c1.17,0,1.55-.2,1.63-.29a4.28,4.28,0,0,0-1.92-.51,12.46,12.46,0,0,1-4.68-1.76,5.37,5.37,0,0,1-1.91-2.25A7.87,7.87,0,0,1,88,19.17c0-4.11,2.79-6.2,8.3-6.2a13.17,13.17,0,0,1,5.44,1.27q1.56.72,1.56,1.92a4.67,4.67,0,0,1-.87,2.4,2.57,2.57,0,0,1-2.06,1.5,4.5,4.5,0,0,1-1.81-.58,5.33,5.33,0,0,0-2.3-.49c-1.38,0-1.58.26-1.58.27,0,.37.74.69,2,.86a13.73,13.73,0,0,1,4.75,1.41,4.62,4.62,0,0,1,2,2,6.76,6.76,0,0,1,.77,3.36,7.3,7.3,0,0,1-.76,3.43,5.13,5.13,0,0,1-2.18,2.17A13.64,13.64,0,0,1,95.2,33.63Zm-6.35-3a11.76,11.76,0,0,0,6.35,1.93,12.65,12.65,0,0,0,5.5-1.06,4,4,0,0,0,1.72-1.72,6.25,6.25,0,0,0,.63-2.93,5.71,5.71,0,0,0-.63-2.84,3.49,3.49,0,0,0-1.5-1.52,12.68,12.68,0,0,0-4.4-1.32c-.73-.09-2.91-.38-2.91-1.93,0-1.32,2-1.32,2.64-1.32a6.53,6.53,0,0,1,2.75.59,4.44,4.44,0,0,0,1.36.49c.44,0,.87-.55,1.16-1a3.78,3.78,0,0,0,.71-1.83c0-.35-.32-.67-.94-.95a12.1,12.1,0,0,0-5-1.18c-4.87,0-7.23,1.69-7.23,5.14a6.94,6.94,0,0,0,.62,3A4.28,4.28,0,0,0,91.2,24a11.28,11.28,0,0,0,4.27,1.61c1.41.19,2.85.52,2.85,1.53,0,1.4-2,1.4-2.71,1.4a6,6,0,0,1-3-1,4.66,4.66,0,0,0-2.11-.8.87.87,0,0,0-.82.36c-1.11,1.56-1.28,2.27-1.28,2.55a.94.94,0,0,0,.44.91Zm29.38,2.67a8.87,8.87,0,0,1-6-1.82c-1.41-1.22-2.12-3.27-2.12-6.1V20.67c-.3,0-.61,0-.93,0a2.15,2.15,0,0,1-1.71-.8,3.63,3.63,0,0,1-.65-2.42,9.57,9.57,0,0,1,.2-2.28,2.41,2.41,0,0,1,.66-1.21,2.76,2.76,0,0,1,1.79-.6h.06l.58.07v-3.1a10.12,10.12,0,0,1,.06-1.29A2.78,2.78,0,0,1,110.58,8c.42-.79,1.47-1.17,3.21-1.17s3,.57,3.4,1.68a6.85,6.85,0,0,1,.21,2V13.5c.79-.07,1.4-.1,1.85-.1a10.16,10.16,0,0,1,1.28.06,3.28,3.28,0,0,1,1.13.4c.81.41,1.21,1.47,1.21,3.23s-.41,2.8-1.25,3.24a4.35,4.35,0,0,1-1.12.36,11,11,0,0,1-1.31,0h0l-1.76-.11V25a1.89,1.89,0,0,0,.21,1.09c.12.18.5.21.71.21a11.83,11.83,0,0,1,1.35.06,3.17,3.17,0,0,1,1.15.4c.73.42,1.09,1.36,1.09,2.87,0,1.74-.43,2.8-1.3,3.24a3.64,3.64,0,0,1-1.12.35A9.91,9.91,0,0,1,118.23,33.3Zm-7-13.85v5.93c0,2.51.59,4.29,1.75,5.3a7.89,7.89,0,0,0,5.3,1.56,10.12,10.12,0,0,0,1.13-.05,3.12,3.12,0,0,0,.79-.26c.45-.23.69-1,.69-2.28,0-1-.19-1.74-.55-1.94a2.05,2.05,0,0,0-.75-.28,12.08,12.08,0,0,0-1.22-.05,1.82,1.82,0,0,1-1.58-.65,3,3,0,0,1-.4-1.71V19.5l2.87.18a10.41,10.41,0,0,0,1.15-.05,2.89,2.89,0,0,0,.79-.26c.42-.22.66-1,.66-2.28,0-1.71-.4-2.17-.64-2.29a2.35,2.35,0,0,0-.77-.28,8.38,8.38,0,0,0-1.15,0c-.52,0-1.3,0-2.33.14l-.58.05v-4.1a6,6,0,0,0-.16-1.67c-.22-.63-1-1-2.39-1-1.77,0-2.18.42-2.28.61l0,0a1.72,1.72,0,0,0-.26.65,8.21,8.21,0,0,0,0,1.15v4.3l-1.75-.21a1.61,1.61,0,0,0-1.06.34,1.51,1.51,0,0,0-.32.68,8.47,8.47,0,0,0-.16,2,2.68,2.68,0,0,0,.39,1.73,1.09,1.09,0,0,0,.9.42,8.53,8.53,0,0,0,1.38-.1ZM57.81,33.3c-1.91,0-3.07-.58-3.44-1.72a6.25,6.25,0,0,1-.24-2V9.63a10.6,10.6,0,0,1,.06-1.31,3.31,3.31,0,0,1,.39-1.13c.44-.84,1.51-1.25,3.26-1.25,1.92,0,3.08.57,3.48,1.68v0a7.34,7.34,0,0,1,.2,2v20a11,11,0,0,1-.05,1.33,3.58,3.58,0,0,1-.4,1.11C60.63,32.89,59.57,33.3,57.81,33.3Zm0-26.3c-1.26,0-2.09.25-2.31.68a2.63,2.63,0,0,0-.29.78,10.56,10.56,0,0,0-.05,1.17V29.58a5.13,5.13,0,0,0,.18,1.64v0c.21.65,1,1,2.43,1s2.09-.24,2.32-.68a2.57,2.57,0,0,0,.28-.76,10.59,10.59,0,0,0,.05-1.19V9.66A6.74,6.74,0,0,0,60.31,8C60.07,7.33,59.25,7,57.84,7ZM81,33.27c-1.95,0-3.11-.58-3.44-1.71a6.19,6.19,0,0,1-.24-2V23.26a2.36,2.36,0,0,0-2.56-2.59,2.57,2.57,0,0,0-1.91.71,2.48,2.48,0,0,0-.72,1.88v6.35A10.6,10.6,0,0,1,72,30.92a2.91,2.91,0,0,1-.4,1.09c-.41.85-1.47,1.26-3.22,1.26s-2.79-.41-3.23-1.26a4,4,0,0,1-.36-1.13,10.42,10.42,0,0,1-.06-1.3V16.88a10.09,10.09,0,0,1,.06-1.27,3.14,3.14,0,0,1,.41-1.12c.44-.78,1.49-1.16,3.21-1.16s2.7.35,3.14,1.08a2.94,2.94,0,0,1,.26.57,7.49,7.49,0,0,1,1-.75,5.25,5.25,0,0,1,3-.9,8.06,8.06,0,0,1,6.35,2.93,10.4,10.4,0,0,1,2.51,7v6.31a10.6,10.6,0,0,1-.06,1.31A3.39,3.39,0,0,1,84.23,32C83.79,32.86,82.72,33.27,81,33.27ZM74.72,19.61a3.41,3.41,0,0,1,3.63,3.65v6.32a5.43,5.43,0,0,0,.18,1.65c.2.65,1,1,2.43,1s2.09-.24,2.32-.68a2.58,2.58,0,0,0,.25-.74,10.56,10.56,0,0,0,0-1.17V23.3A9.43,9.43,0,0,0,81.33,17a7,7,0,0,0-5.55-2.56,4.1,4.1,0,0,0-2.39.74,5.37,5.37,0,0,0-.9.7,3,3,0,0,0-.54.59l-1,1.75v-2a2.32,2.32,0,0,0-.28-1.2c-.1-.17-.53-.57-2.23-.57s-2.15.4-2.28.63a2.07,2.07,0,0,0-.28.72,10.2,10.2,0,0,0,0,1.14v12.7a10.7,10.7,0,0,0,0,1.17,2.67,2.67,0,0,0,.26.79c.21.42,1,.66,2.27.66s2.07-.23,2.27-.66l0,0a1.79,1.79,0,0,0,.27-.72,8.54,8.54,0,0,0,0-1.17V23.26a3.56,3.56,0,0,1,1-2.64A3.65,3.65,0,0,1,74.72,19.61ZM142.3,33.23a5.13,5.13,0,0,1-2.93-.59,2.31,2.31,0,0,1-.68-.78,6,6,0,0,1-4.19,1.37,8.33,8.33,0,0,1-6.13-3,9.93,9.93,0,0,1-2.79-6.95,9.82,9.82,0,0,1,2.81-6.93,8.49,8.49,0,0,1,6.24-3,6,6,0,0,1,2.42.48,5.36,5.36,0,0,1,1.56.91l0,0c.4-.79,1.27-1.46,3.07-1.46a7.82,7.82,0,0,1,2.23.24,2,2,0,0,1,1.27,1,3.66,3.66,0,0,1,.37,1.12,10.6,10.6,0,0,1,.06,1.31V29.58a10.31,10.31,0,0,1-.06,1.3,3.79,3.79,0,0,1-.35,1.11v0C144.78,32.82,143.8,33.23,142.3,33.23Zm-3-3.89.16,1.4a1.38,1.38,0,0,0,.55,1,4.1,4.1,0,0,0,2.3.39c.74,0,1.67-.12,2-.64a2.65,2.65,0,0,0,.25-.78,8.63,8.63,0,0,0,0-1.17V17a8.54,8.54,0,0,0,0-1.17,2.34,2.34,0,0,0-.27-.78,1,1,0,0,0-.63-.49,7.2,7.2,0,0,0-1.91-.19c-1.89,0-2.22.82-2.3,1.54l-.15,1.41-.81-1.16a4.72,4.72,0,0,0-.58-.66,4.25,4.25,0,0,0-1.24-.7,5,5,0,0,0-2-.39,7.46,7.46,0,0,0-5.46,2.65,8.74,8.74,0,0,0-2.52,6.2,8.87,8.87,0,0,0,2.5,6.22,7.31,7.31,0,0,0,5.35,2.67c1.9,0,3.2-.55,4-1.68ZM135.56,27a3.56,3.56,0,0,1-2.64-1.11,3.5,3.5,0,0,1-1.08-2.51,3.77,3.77,0,0,1,1-2.53,3.41,3.41,0,0,1,2.69-1.19,3.31,3.31,0,0,1,2.66,1.19,3.86,3.86,0,0,1,1,2.52,3.68,3.68,0,0,1-1,2.49A3.36,3.36,0,0,1,135.56,27Zm0-6.28a2.35,2.35,0,0,0-1.89.83,2.7,2.7,0,0,0-.74,1.83,2.46,2.46,0,0,0,.77,1.77,2.52,2.52,0,0,0,1.88.79,2.29,2.29,0,0,0,1.8-.8,2.56,2.56,0,0,0,.74-1.77,2.77,2.77,0,0,0-.72-1.83A2.26,2.26,0,0,0,135.54,20.67Z"/><path class="fbd7c7e1-78ff-46a0-8a9e-f490a609f277" d="M25,57.71H21.32V26.46a6.83,6.83,0,0,1,2-4.81l.44-.45A9.62,9.62,0,0,1,29,18.46L38.3,16.9l2.17-2.64L25.29,9.54C23.49,8.09,23.28,7,21,6.81c-2.47-.16-4.72-1-6.16.79-3.32.27-5.92,4.73-5.92,8.09v47A7.39,7.39,0,0,0,16.32,70H25Z"/><path class="bbf298dc-5d53-4090-9b2b-eafa347c5b43" d="M40.28,13.92l-10.09-3-.29,1.28a2.2,2.2,0,0,1-2.1,1.7l-3.6.08a2.91,2.91,0,0,0-2.29,1.22l-1.5,2.11.54-.08a1.5,1.5,0,0,0,.13,1.08,1.56,1.56,0,0,0,3-.69,1.51,1.51,0,0,0-.09-.53l.37-.18a2.47,2.47,0,0,1,1-.22l14.1.77,2.4-2Z"/><path class="b31ff7a8-545d-46fe-8dcb-5951d1c58ae8" d="M22.52,19.39h-.2a1.83,1.83,0,0,1-1.4-1,1.73,1.73,0,0,1-.2-.91l-.76.12,1.82-2.68A2.6,2.6,0,0,1,24,13.6h3.77a1.91,1.91,0,0,0,1.83-1.4L30,10.82a.24.24,0,0,1,.29-.17.24.24,0,0,1,.16.29l-.37,1.38a2.36,2.36,0,0,1-2.28,1.74H24a2.14,2.14,0,0,0-1.86,1.09L21,17l.36-.06-.09.35a1.28,1.28,0,0,0,.1.92,1.36,1.36,0,0,0,1.05.74,1.29,1.29,0,0,0,1-.33,1.36,1.36,0,0,0,.45-1,1.38,1.38,0,0,0-.08-.45l-.08-.21.57-.26a2.59,2.59,0,0,1,1.1-.24l11.24.28a.23.23,0,0,1,.23.24.22.22,0,0,1-.24.22l-11.23-.28a2.09,2.09,0,0,0-.91.21l-.18.08a1.92,1.92,0,0,1,.05.41,1.82,1.82,0,0,1-1.82,1.81Z"/><path class="ac1305ad-41bb-4143-9a1e-9fc5c28a89ae" d="M47,70V32.6A7.38,7.38,0,0,0,39.64,40a7.38,7.38,0,0,0-7.38,7.38,7.37,7.37,0,0,0-7.37,7.38V70Z"/><path class="ac1305ad-41bb-4143-9a1e-9fc5c28a89ae" d="M19.14,14a2.68,2.68,0,1,1,2.68-2.68A2.68,2.68,0,0,1,19.14,14Z"/><path class="e8a0e922-0197-41df-b610-fcd038e0a02c" d="M46.9,44.32a7.38,7.38,0,0,0-6.09,7.26A7.39,7.39,0,0,0,33.43,59a7.37,7.37,0,0,0-7.37,7.38V70H46.9Z"/><path class="b31ff7a8-545d-46fe-8dcb-5951d1c58ae8" d="M19.14,8.9a2.45,2.45,0,1,1-2.44,2.45A2.45,2.45,0,0,1,19.14,8.9m0-.47a2.92,2.92,0,1,0,2.92,2.92,2.91,2.91,0,0,0-2.92-2.92Z"/><path class="b31ff7a8-545d-46fe-8dcb-5951d1c58ae8" d="M19.14,9.8h-.06a.78.78,0,0,1,.06.31.76.76,0,0,1-.77.77.74.74,0,0,1-.48-.17,1.31,1.31,0,0,0,1.25,1.7,1.31,1.31,0,1,0,0-2.62Z"/><path class="b31ff7a8-545d-46fe-8dcb-5951d1c58ae8" d="M32,14.09a2,2,0,0,0,.33.08,2.36,2.36,0,0,0,.65,0c-.2-.07-.41-.13-.6-.21a1.3,1.3,0,0,1-.26-.14.37.37,0,0,1-.17-.15s0,0,0,0l.06,0a1.08,1.08,0,0,1,.24-.1,5,5,0,0,1,.58-.12,8.24,8.24,0,0,1,1.22-.06,6,6,0,0,1,.61.06l.3.07c.09,0,.19.08.22.19a.32.32,0,0,0-.17-.29,1.27,1.27,0,0,0-.29-.18,2.85,2.85,0,0,0-.63-.19,4.11,4.11,0,0,0-1.31,0,3.17,3.17,0,0,0-.66.16,2.11,2.11,0,0,0-.32.18.47.47,0,0,0-.16.2.42.42,0,0,0,0,.16.42.42,0,0,0,.05.17A.62.62,0,0,0,32,14.09Z"/><path class="b31ff7a8-545d-46fe-8dcb-5951d1c58ae8" d="M41.85,15.34l-1.49,0c-1.73,0-7.07-.1-8.8-.11s-3.47,0-5.2.06l-1.3,0-.65,0a1.75,1.75,0,0,0-.67.11,2.35,2.35,0,0,0-1.43,2.32,2.59,2.59,0,0,1,.45-1.35,2,2,0,0,1,1-.75,1.79,1.79,0,0,1,.61-.06l.65,0,1.3,0c1.73,0,3.46.05,5.2.05s7.07,0,8.8,0l1.49,0Z"/><path class="f8c154ad-5cac-4a15-ade2-626c8f552545" d="M40.87,24.28H31.29a1.61,1.61,0,0,0-.51,1.19V45.38a1.65,1.65,0,0,0,.51,1.19h.54a7.86,7.86,0,0,1,7.36-7,7.82,7.82,0,0,1,2.87-5.62V25.47A1.19,1.19,0,0,0,40.87,24.28Z"/><polygon class="ac1305ad-41bb-4143-9a1e-9fc5c28a89ae" points="38.11 27.61 31.66 26.82 38.11 26.03 38.89 19.59 39.68 26.03 46.12 26.82 39.68 27.61 38.89 34.05 38.11 27.61"/><path class="b31ff7a8-545d-46fe-8dcb-5951d1c58ae8" d="M47.49,42.8V32.14H47a7.73,7.73,0,0,0-4,1.11V25.47a2.13,2.13,0,0,0-2.13-2.13H31a2.12,2.12,0,0,0-2.12,2.13v1.35h0a.47.47,0,0,0-.46.47v2.39a.47.47,0,0,0,.46.47h0v.14h0a.47.47,0,0,0-.46.47v2.39a.47.47,0,0,0,.46.47h0V45.38A2.12,2.12,0,0,0,30,47.23a7.86,7.86,0,0,0-5.57,7.51v2.39H20.15V26.8A6.45,6.45,0,0,1,22,22.28l.45-.46a9,9,0,0,1,5-2.62l9.22-1.56,1.79.22a3.37,3.37,0,0,0,2.7-.86l1.67-1.51L41.22,13.9a3.32,3.32,0,0,0-1.45-.84L25.25,9a8.84,8.84,0,0,0-7.06-3,7.47,7.47,0,0,1-2.1-.17c-1.08-.19-2.1-.38-3.15.83-3.42.45-6.15,5-6.15,8.61V62.6a7.9,7.9,0,0,0,7.89,7.89H47.49V42.8ZM24.42,69.56H14.68a7,7,0,0,1-6.95-7V15.24c0-3.26,2.53-7.45,5.49-7.69l.2,0,.12-.16a1.63,1.63,0,0,1,1.37-.78,5.37,5.37,0,0,1,1,.14,8.63,8.63,0,0,0,2.35.17,7.86,7.86,0,0,1,6.31,2.77l.09.14L39.52,14a2.47,2.47,0,0,1,1,.6l.91.9-.94.85a2.45,2.45,0,0,1-2,.62l-1.93-.23-9.36,1.58a9.93,9.93,0,0,0-5.52,2.89l-.45.45a7.37,7.37,0,0,0-2.11,5.18V58.07h5.21Zm5.42-44.09A1.19,1.19,0,0,1,31,24.28h9.84a1.19,1.19,0,0,1,1.19,1.19v8.44a7.82,7.82,0,0,0-2.87,5.62,7.86,7.86,0,0,0-7.36,7H31a1.19,1.19,0,0,1-1.19-1.19ZM46.55,69.56H25.35V65.4a6.92,6.92,0,0,1,6.91-6.91h.47V58a6.92,6.92,0,0,1,6.91-6.91h.47v-.46a6.92,6.92,0,0,1,6.44-6.9Zm0-26.74a7.84,7.84,0,0,0-7.36,7.37,7.86,7.86,0,0,0-7.38,7.38,7.87,7.87,0,0,0-6.46,4.12V54.74a6.92,6.92,0,0,1,6.91-6.91h.47v-.47a6.92,6.92,0,0,1,6.91-6.91h.47V40a6.92,6.92,0,0,1,6.44-6.89Z"/><polygon class="ac1305ad-41bb-4143-9a1e-9fc5c28a89ae" points="38.11 27.61 31.66 26.82 38.11 26.03 38.89 19.59 39.68 26.03 46.12 26.82 39.68 27.61 38.89 34.05 38.11 27.61"/><path class="bbf298dc-5d53-4090-9b2b-eafa347c5b43" d="M38.89,21.52l.58,4.72,4.72.58-4.72.57-.58,4.72-.57-4.72-4.72-.57,4.72-.58.57-4.72m0-3.87-.46,3.82-.53,4.35-4.36.53-3.81.47,3.81.46,4.36.53.53,4.36L38.89,36l.47-3.81.53-4.36,4.35-.53,3.82-.46-3.82-.47-4.35-.53-.53-4.35-.47-3.82Z"/></svg>