<svg id="e5c2b3bd-0d87-4bf1-b22d-95047e26cfb9" data-name="Layer 4" xmlns="http://www.w3.org/2000/svg" viewBox="0 0 715.99 337.05"><defs><style>.e874fa46-2dfd-4109-96a0-01ea632d8d26{fill:#3c3c3b;}.e9f4f714-f7f7-4960-98c1-b6f4b5b2ba77{fill:#fff;}.b9e378e4-02f2-4c63-bc1f-2e75f9ec8976{fill:#575756;}.f9fb6728-be7e-4301-a3f7-d0d985578570{fill:#ededed;}.a3374baf-b605-4d01-b0c0-0c6315d8bc4a{fill:#ff89b4;}.f11b436b-982c-476f-9cff-dab454791069{fill:#fcbd04;}</style></defs><path class="e874fa46-2dfd-4109-96a0-01ea632d8d26" d="M375,66.44a35.72,35.72,0,0,1,.19-4.35,10.06,10.06,0,0,1,1.19-3.35q1.77-3.39,9.81-3.4,8.81,0,10.43,4.67a25,25,0,0,1,.63,6.55v70.13a35.42,35.42,0,0,1-.19,4.41,10,10,0,0,1-1.19,3.28c-1.18,2.27-4.44,3.41-9.81,3.41q-8.79,0-10.31-4.79a20,20,0,0,1-.75-6.44Zm74.22,14.88A26.55,26.55,0,0,1,470.11,91q8.37,9.65,8.36,23.52v22.2a38.43,38.43,0,0,1-.18,4.35,10.64,10.64,0,0,1-1.07,3.22q-1.77,3.39-9.81,3.4-8.93,0-10.31-4.66a20.77,20.77,0,0,1-.75-6.44v-22.2q0-5.16-3-8.07a10.83,10.83,0,0,0-7.92-2.9,11,11,0,0,0-8,3,10.61,10.61,0,0,0-3.08,7.94v22.33a37.92,37.92,0,0,1-.19,4.35,9.12,9.12,0,0,1-1.2,3.22q-1.63,3.39-9.68,3.4t-9.68-3.4a12.08,12.08,0,0,1-1.07-3.35,38.31,38.31,0,0,1-.18-4.35V91.92a37.1,37.1,0,0,1,.18-4.23,9.12,9.12,0,0,1,1.2-3.22q1.75-3.15,9.68-3.15,7.66,0,9.43,2.9a10.12,10.12,0,0,1,1.25,5.17,13,13,0,0,1,2.27-2.52,22.53,22.53,0,0,1,3.39-2.65A16.45,16.45,0,0,1,449.18,81.32Zm44.94,60.54a5.25,5.25,0,0,1-2.38-4.79q0-3.28,4.77-10A4.91,4.91,0,0,1,501,125q3.07,0,8.36,3.09t9.55,3.09q7.67,0,7.67-3,0-2.39-8.42-3.53a41.1,41.1,0,0,1-15.72-5.93,16.76,16.76,0,0,1-6-7.12A25.81,25.81,0,0,1,494,100q0-19.93,27.28-19.93a44.13,44.13,0,0,1,18.35,4.29q4.41,2,4.41,5c0,2-.93,4.5-2.77,7.44s-3.73,4.42-5.66,4.42c-1,0-2.87-.63-5.59-1.89a20.74,20.74,0,0,0-8.87-1.9q-7.41,0-7.41,2.78,0,3.78,8.55,4.92A46.65,46.65,0,0,1,538.38,110a14.32,14.32,0,0,1,6.1,6.12A22,22,0,0,1,546.93,127a23.53,23.53,0,0,1-2.45,11.16,15.91,15.91,0,0,1-6.86,6.87q-8,3.92-20.17,3.91A43.08,43.08,0,0,1,494.12,141.86ZM601.8,103.64l-8.17-.5v17.41a8.74,8.74,0,0,0,1.07,4.91c.71,1,2,1.52,4,1.52a39.79,39.79,0,0,1,4.53.19,8.84,8.84,0,0,1,3.33,1.19q2.89,1.65,2.89,8.45,0,8-3.52,9.71a11.81,11.81,0,0,1-3.33,1.08,34.22,34.22,0,0,1-4.21.19q-13.08,0-19.87-5.93t-6.78-20.05V103.14a33.44,33.44,0,0,1-5.16.38,5.79,5.79,0,0,1-4.59-2.15q-1.82-2.13-1.82-7.31a31.84,31.84,0,0,1,.63-7.51,6.76,6.76,0,0,1,1.76-3.34,7.7,7.7,0,0,1,5-1.64l4.15.51v-13a36.63,36.63,0,0,1,.18-4.29,8.09,8.09,0,0,1,1.2-3q1.64-3.15,9.68-3.15,8.55,0,10.18,4.66a23.65,23.65,0,0,1,.63,6.44V82.08q5.54-.51,8.36-.51a35,35,0,0,1,4.28.19A10.26,10.26,0,0,1,609.6,83c2.17,1.09,3.27,4.33,3.27,9.71s-1.14,8.54-3.4,9.71a11.81,11.81,0,0,1-3.33,1.08A38.35,38.35,0,0,1,601.8,103.64ZM671,88.38q.75-7.06,9.93-7.06a25.82,25.82,0,0,1,7.3.76,5.29,5.29,0,0,1,3.33,2.64,11,11,0,0,1,1.13,3.35,35.83,35.83,0,0,1,.19,4.35v44.14a35.61,35.61,0,0,1-.19,4.35,11.75,11.75,0,0,1-1.07,3.35c-1.18,2.18-4,3.27-8.61,3.27s-7.63-.56-9.18-1.7a6.79,6.79,0,0,1-2.7-5q-4.65,6.69-15.53,6.68t-20.18-10a32.87,32.87,0,0,1-9.3-23.14,32.51,32.51,0,0,1,9.37-23.08q9.36-9.9,20.55-9.91a19.55,19.55,0,0,1,7.8,1.52,17.19,17.19,0,0,1,4.9,2.84A17.66,17.66,0,0,1,671,88.38Zm-22.88,26.24a10.48,10.48,0,0,0,3.27,7.5,10.66,10.66,0,0,0,7.92,3.34,10,10,0,0,0,7.73-3.4,11,11,0,0,0,3.08-7.51,11.68,11.68,0,0,0-3-7.63,9.81,9.81,0,0,0-7.92-3.53,10.2,10.2,0,0,0-8,3.53A11.51,11.51,0,0,0,648.13,114.62Z"/><path class="e874fa46-2dfd-4109-96a0-01ea632d8d26" d="M546.73,195.64c-7-6.68-15-10.07-23.68-10.07s-16.69,3.43-23.62,10.18-10.5,15.68-10.5,26.43,3.56,19.67,10.59,26.45,15,10.17,23.69,10.17,16.66-3.33,23.6-9.9,10.52-15.55,10.52-26.54S553.76,202.37,546.73,195.64Zm-4.44,48.49c-5.76,5.45-12,8.11-19.08,8.11s-13.33-2.73-19.14-8.33-8.57-12.68-8.57-21.73,2.79-16.15,8.5-21.72,12-8.32,19-8.32,13.33,2.7,19.14,8.25,8.57,12.7,8.57,22S548,238.73,542.29,244.13ZM675.9,195.64c-7-6.68-15-10.07-23.69-10.07s-16.68,3.43-23.62,10.18-10.5,15.68-10.5,26.43,3.57,19.67,10.59,26.45,15,10.17,23.7,10.17S669,255.47,676,248.9s10.52-15.55,10.52-26.54S682.93,202.37,675.9,195.64Zm-4.45,48.49c-5.75,5.45-12,8.11-19.07,8.11s-13.33-2.73-19.14-8.33-8.58-12.68-8.58-21.73,2.79-16.15,8.5-21.72,12-8.32,19.05-8.32,13.34,2.7,19.15,8.26,8.57,12.69,8.57,22S677.16,238.73,671.45,244.13ZM466.56,259.56a11.55,11.55,0,0,0-5.52-6.34c-2.46-1.34-6.06-2-11-2H415L462.85,185a14.92,14.92,0,0,0,2.66-9.14,18.85,18.85,0,0,0-2.36-9.47,17.67,17.67,0,0,0-6.63-6.55,18,18,0,0,0-9-2.42h-67a54.48,54.48,0,0,0-6.34.27,16.42,16.42,0,0,0-5.5,1.92c-4.23,2.2-6.27,7.41-6.27,15.92,0,8.12,2.25,13.32,6.69,15.45l.1.06a20,20,0,0,0,5.49,1.66,51.75,51.75,0,0,0,6.34.28H413L365.1,259.21a14.59,14.59,0,0,0-2.66,9c0,7.14,3.11,12.68,9,16a17.88,17.88,0,0,0,9,2.43h69.33a29.53,29.53,0,0,0,9.53-1.16,9.69,9.69,0,0,0,5.07-3.27,16.29,16.29,0,0,0,2.55-5.42,30.36,30.36,0,0,0,1-8.43A26.2,26.2,0,0,0,466.56,259.56Zm-6,15.36a10,10,0,0,1-1.44,3.25,3.56,3.56,0,0,1-1.81,1l-.26.08c-1,.36-3,.78-7.34.78H380.39a11.27,11.27,0,0,1-5.72-1.57C370.8,276.3,369,273,369,268.19a8.26,8.26,0,0,1,1.39-5.08l55.42-76.71H381.06a46.69,46.69,0,0,1-5.5-.22,14.12,14.12,0,0,1-3.63-1.14c-1.89-.95-2.93-4.34-2.93-9.52,0-7.82,1.92-9.66,2.76-10.1a10,10,0,0,1,3.3-1.23,49.67,49.67,0,0,1,5.49-.22h67a11.26,11.26,0,0,1,5.69,1.57,11,11,0,0,1,4.21,4.11,12.24,12.24,0,0,1,1.47,6.2,8.66,8.66,0,0,1-1.37,5.25l-55.43,76.7h47.92c4.93,0,7,.74,7.84,1.18a5,5,0,0,1,2.49,2.82,19.84,19.84,0,0,1,.89,6.55A24.18,24.18,0,0,1,460.57,274.92Zm86.16-79.28c-7-6.68-15-10.07-23.68-10.07s-16.69,3.43-23.62,10.18-10.5,15.68-10.5,26.43,3.56,19.67,10.59,26.45,15,10.17,23.69,10.17,16.66-3.33,23.6-9.9,10.52-15.55,10.52-26.54S553.76,202.37,546.73,195.64Zm-4.44,48.49c-5.76,5.45-12,8.11-19.08,8.11s-13.33-2.73-19.14-8.33-8.57-12.68-8.57-21.73,2.79-16.15,8.5-21.72,12-8.32,19-8.32,13.33,2.7,19.14,8.25,8.57,12.7,8.57,22S548,238.73,542.29,244.13Zm4.44-48.49c-7-6.68-15-10.07-23.68-10.07s-16.69,3.43-23.62,10.18-10.5,15.68-10.5,26.43,3.56,19.67,10.59,26.45,15,10.17,23.69,10.17,16.66-3.33,23.6-9.9,10.52-15.55,10.52-26.54S553.76,202.37,546.73,195.64Zm-4.44,48.49c-5.76,5.45-12,8.11-19.08,8.11s-13.33-2.73-19.14-8.33-8.57-12.68-8.57-21.73,2.79-16.15,8.5-21.72,12-8.32,19-8.32,13.33,2.7,19.14,8.25,8.57,12.7,8.57,22S548,238.73,542.29,244.13Zm4.44-48.49c-7-6.68-15-10.07-23.68-10.07s-16.69,3.43-23.62,10.18-10.5,15.68-10.5,26.43,3.56,19.67,10.59,26.45,15,10.17,23.69,10.17,16.66-3.33,23.6-9.9,10.52-15.55,10.52-26.54S553.76,202.37,546.73,195.64Zm-4.44,48.49c-5.76,5.45-12,8.11-19.08,8.11s-13.33-2.73-19.14-8.33-8.57-12.68-8.57-21.73,2.79-16.15,8.5-21.72,12-8.32,19-8.32,13.33,2.7,19.14,8.25,8.57,12.7,8.57,22S548,238.73,542.29,244.13Zm25.39-69.28c-12.69-12.47-27.88-18.78-45.14-18.78A59.48,59.48,0,0,0,498.92,161a66.26,66.26,0,0,0-20.17,13.51,63.39,63.39,0,0,0-14.06,21.34A70.52,70.52,0,0,0,459.43,223a64,64,0,0,0,18.68,46c12.41,12.83,27.71,19.33,45.44,19.33s32.92-6.6,45.07-19.63,18.21-28.85,18.21-47.24S580.39,187.32,567.68,174.85Zm-3.87,89.34c-11,11.81-24.17,17.55-40.26,17.55s-29.43-5.67-40.73-17.34A57.72,57.72,0,0,1,466,223a64.25,64.25,0,0,1,4.75-24.66,57.22,57.22,0,0,1,12.6-19.15A59.5,59.5,0,0,1,501.51,167a52.92,52.92,0,0,1,21-4.4c15.48,0,29.12,5.68,40.55,16.89s17.17,25.29,17.17,41.9S574.73,252.49,563.81,264.19Zm-40.76-78.62c-8.74,0-16.69,3.43-23.62,10.18s-10.5,15.68-10.5,26.43,3.56,19.67,10.59,26.45,15,10.17,23.69,10.17,16.66-3.33,23.6-9.9,10.52-15.55,10.52-26.54-3.57-20-10.6-26.72S531.77,185.57,523.05,185.57Zm19.24,58.56c-5.76,5.45-12,8.11-19.08,8.11s-13.33-2.73-19.14-8.33-8.57-12.68-8.57-21.73,2.79-16.15,8.5-21.72,12-8.32,19-8.32,13.33,2.7,19.14,8.25,8.57,12.7,8.57,22S548,238.73,542.29,244.13Zm4.44-48.49c-7-6.68-15-10.07-23.68-10.07s-16.69,3.43-23.62,10.18-10.5,15.68-10.5,26.43,3.56,19.67,10.59,26.45,15,10.17,23.69,10.17,16.66-3.33,23.6-9.9,10.52-15.55,10.52-26.54S553.76,202.37,546.73,195.64Zm-4.44,48.49c-5.76,5.45-12,8.11-19.08,8.11s-13.33-2.73-19.14-8.33-8.57-12.68-8.57-21.73,2.79-16.15,8.5-21.72,12-8.32,19-8.32,13.33,2.7,19.14,8.25,8.57,12.7,8.57,22S548,238.73,542.29,244.13Zm4.44-48.49c-7-6.68-15-10.07-23.68-10.07s-16.69,3.43-23.62,10.18-10.5,15.68-10.5,26.43,3.56,19.67,10.59,26.45,15,10.17,23.69,10.17,16.66-3.33,23.6-9.9,10.52-15.55,10.52-26.54S553.76,202.37,546.73,195.64Zm-4.44,48.49c-5.76,5.45-12,8.11-19.08,8.11s-13.33-2.73-19.14-8.33-8.57-12.68-8.57-21.73,2.79-16.15,8.5-21.72,12-8.32,19-8.32,13.33,2.7,19.14,8.25,8.57,12.7,8.57,22S548,238.73,542.29,244.13ZM675.9,195.64c-7-6.68-15-10.07-23.69-10.07s-16.68,3.43-23.62,10.18-10.5,15.68-10.5,26.43,3.57,19.67,10.59,26.45,15,10.17,23.7,10.17S669,255.47,676,248.9s10.52-15.55,10.52-26.54S682.93,202.37,675.9,195.64Zm-4.45,48.49c-5.75,5.45-12,8.11-19.07,8.11s-13.33-2.73-19.14-8.33-8.58-12.68-8.58-21.73,2.79-16.15,8.5-21.72,12-8.32,19.05-8.32,13.34,2.7,19.15,8.26,8.57,12.69,8.57,22S677.16,238.73,671.45,244.13Zm4.45-48.49c-7-6.68-15-10.07-23.69-10.07s-16.68,3.43-23.62,10.18-10.5,15.68-10.5,26.43,3.57,19.67,10.59,26.45,15,10.17,23.7,10.17S669,255.47,676,248.9s10.52-15.55,10.52-26.54S682.93,202.37,675.9,195.64Zm-4.45,48.49c-5.75,5.45-12,8.11-19.07,8.11s-13.33-2.73-19.14-8.33-8.58-12.68-8.58-21.73,2.79-16.15,8.5-21.72,12-8.32,19.05-8.32,13.34,2.7,19.15,8.26,8.57,12.69,8.57,22S677.16,238.73,671.45,244.13Zm4.45-48.49c-7-6.68-15-10.07-23.69-10.07s-16.68,3.43-23.62,10.18-10.5,15.68-10.5,26.43,3.57,19.67,10.59,26.45,15,10.17,23.7,10.17S669,255.47,676,248.9s10.52-15.55,10.52-26.54S682.93,202.37,675.9,195.64Zm-4.45,48.49c-5.75,5.45-12,8.11-19.07,8.11s-13.33-2.73-19.14-8.33-8.58-12.68-8.58-21.73,2.79-16.15,8.5-21.72,12-8.32,19.05-8.32,13.34,2.7,19.15,8.26,8.57,12.69,8.57,22S677.16,238.73,671.45,244.13Zm25.39-69.28c-12.69-12.47-27.87-18.78-45.13-18.78A59.52,59.52,0,0,0,628.08,161a66.14,66.14,0,0,0-20.17,13.51,63.56,63.56,0,0,0-14.07,21.34A70.76,70.76,0,0,0,588.6,223a64,64,0,0,0,18.67,46C619.68,281.8,635,288.3,652.71,288.3s32.92-6.6,45.07-19.63S716,239.82,716,221.43,709.55,187.32,696.84,174.85ZM693,264.19c-11,11.81-24.17,17.55-40.26,17.55S623.28,276.07,612,264.4A57.68,57.68,0,0,1,595.16,223a64.44,64.44,0,0,1,4.75-24.66,57.22,57.22,0,0,1,12.6-19.15A59.19,59.19,0,0,1,630.68,167a52.89,52.89,0,0,1,21-4.4c15.48,0,29.11,5.68,40.53,16.89s17.18,25.29,17.18,41.9S703.89,252.49,693,264.19Zm-40.76-78.62c-8.73,0-16.68,3.43-23.62,10.18s-10.5,15.68-10.5,26.43,3.57,19.67,10.59,26.45,15,10.17,23.7,10.17S669,255.47,676,248.9s10.52-15.55,10.52-26.54-3.56-20-10.59-26.72S660.93,185.57,652.21,185.57Zm19.24,58.56c-5.75,5.45-12,8.11-19.07,8.11s-13.33-2.73-19.14-8.33-8.58-12.68-8.58-21.73,2.79-16.15,8.5-21.72,12-8.32,19.05-8.32,13.34,2.7,19.15,8.26,8.57,12.69,8.57,22S677.16,238.73,671.45,244.13Zm4.45-48.49c-7-6.68-15-10.07-23.69-10.07s-16.68,3.43-23.62,10.18-10.5,15.68-10.5,26.43,3.57,19.67,10.59,26.45,15,10.17,23.7,10.17S669,255.47,676,248.9s10.52-15.55,10.52-26.54S682.93,202.37,675.9,195.64Zm-4.45,48.49c-5.75,5.45-12,8.11-19.07,8.11s-13.33-2.73-19.14-8.33-8.58-12.68-8.58-21.73,2.79-16.15,8.5-21.72,12-8.32,19.05-8.32,13.34,2.7,19.15,8.26,8.57,12.69,8.57,22S677.16,238.73,671.45,244.13Zm4.45-48.49c-7-6.68-15-10.07-23.69-10.07s-16.68,3.43-23.62,10.18-10.5,15.68-10.5,26.43,3.57,19.67,10.59,26.45,15,10.17,23.7,10.17S669,255.47,676,248.9s10.52-15.55,10.52-26.54S682.93,202.37,675.9,195.64Zm-4.45,48.49c-5.75,5.45-12,8.11-19.07,8.11s-13.33-2.73-19.14-8.33-8.58-12.68-8.58-21.73,2.79-16.15,8.5-21.72,12-8.32,19.05-8.32,13.34,2.7,19.15,8.26,8.57,12.69,8.57,22S677.16,238.73,671.45,244.13Z"/><path class="e9f4f714-f7f7-4960-98c1-b6f4b5b2ba77" d="M692.24,179.53c-11.42-11.21-25-16.89-40.53-16.89a52.89,52.89,0,0,0-21,4.4,59.19,59.19,0,0,0-18.17,12.16,57.22,57.22,0,0,0-12.6,19.15A64.44,64.44,0,0,0,595.16,223,57.68,57.68,0,0,0,612,264.4c11.29,11.67,24.6,17.34,40.72,17.34S682,276,693,264.19s16.45-26.08,16.45-42.76S703.65,190.73,692.24,179.53ZM676,248.9c-6.93,6.57-14.87,9.9-23.59,9.9s-16.71-3.42-23.7-10.17S618.09,233,618.09,222.18s3.53-19.65,10.5-26.43,14.89-10.18,23.62-10.18S668.9,189,675.9,195.64s10.59,15.72,10.59,26.72S683,242.28,676,248.9ZM563.09,179.53c-11.43-11.21-25.07-16.89-40.55-16.89a52.92,52.92,0,0,0-21,4.4,59.5,59.5,0,0,0-18.16,12.16,57.22,57.22,0,0,0-12.6,19.15A64.25,64.25,0,0,0,466,223a57.72,57.72,0,0,0,16.82,41.39c11.3,11.67,24.61,17.34,40.73,17.34s29.26-5.74,40.26-17.55,16.45-26.09,16.45-42.76S574.49,190.73,563.09,179.53ZM546.81,248.9c-6.94,6.57-14.88,9.9-23.6,9.9s-16.7-3.42-23.69-10.17S488.93,233,488.93,222.18s3.54-19.65,10.5-26.43,14.88-10.18,23.62-10.18,16.69,3.39,23.68,10.07,10.6,15.72,10.6,26.72S553.79,242.28,546.81,248.9Zm-85.54,19.45a24.18,24.18,0,0,1-.7,6.57,10,10,0,0,1-1.44,3.25,3.56,3.56,0,0,1-1.81,1l-.26.08c-1,.36-3,.78-7.34.78H380.39a11.27,11.27,0,0,1-5.72-1.57C370.8,276.3,369,273,369,268.19a8.26,8.26,0,0,1,1.39-5.08l55.42-76.71H381.06a46.69,46.69,0,0,1-5.5-.22,14.12,14.12,0,0,1-3.63-1.14c-1.89-.95-2.93-4.34-2.93-9.52,0-7.82,1.92-9.66,2.76-10.1a10,10,0,0,1,3.3-1.23,49.67,49.67,0,0,1,5.49-.22h67a11.26,11.26,0,0,1,5.69,1.57,11,11,0,0,1,4.21,4.11,12.24,12.24,0,0,1,1.47,6.2,8.66,8.66,0,0,1-1.37,5.25l-55.43,76.7h47.92c4.93,0,7,.74,7.84,1.18a5,5,0,0,1,2.49,2.82A19.84,19.84,0,0,1,461.27,268.35Z"/><circle class="e9f4f714-f7f7-4960-98c1-b6f4b5b2ba77" cx="168.52" cy="168.52" r="168.52"/><polygon class="b9e378e4-02f2-4c63-bc1f-2e75f9ec8976" points="198.1 231.78 198.1 151.59 202.83 143.54 209.81 140.14 276.29 140.14 283.51 151.84 281.52 232.27 198.1 231.78"/><path class="f9fb6728-be7e-4301-a3f7-d0d985578570" d="M186.16,336.13,166.83,315.9l-17.22-5.35-19,3.9-11.93-16.39L98.93,286.77l-22.8,4.05L60.42,271.56l-18.75-8.1-11.62,1.11a168.3,168.3,0,0,0,138.47,72.48A171.31,171.31,0,0,0,186.16,336.13Z"/><path class="f9fb6728-be7e-4301-a3f7-d0d985578570" d="M323.71,234.32l-169.69-3,3.44,15.46,13.43,18.49L195,271.31l5.89,20.78,17.44,15.71L237,313.37l3.14,7.72A169.08,169.08,0,0,0,323.71,234.32Z"/><path class="b9e378e4-02f2-4c63-bc1f-2e75f9ec8976" d="M324.56,232.27,218.33,261.91,225,276.19l13.37,10.62,16.82,3.73h12.69l6.3,9.27A169.06,169.06,0,0,0,324.56,232.27Z"/><polygon class="a3374baf-b605-4d01-b0c0-0c6315d8bc4a" points="61.14 262.16 61.14 273.35 76.33 289.55 100.98 289.55 119.41 300.26 130.62 314.45 144.06 309.72 144.06 177.74 146.8 158.07 161.74 141.63 177.19 129.53 206.07 122.71 246.91 114.74 215.53 74.98 177.19 63.94 157.51 47.51 127.88 43.77 110.2 41.78 97.5 48.75 75.58 64.19 63.88 85.85 61.14 111.25 61.14 167.69 61.14 262.16"/><path class="f11b436b-982c-476f-9cff-dab454791069" d="M279.12,93.5,212.63,73.44l-1.92,8.42a14.49,14.49,0,0,1-13.83,11.25l-23.7.49a19.16,19.16,0,0,0-15.08,8.05l-9.9,13.94,3.58-.56a9.78,9.78,0,0,0,.81,7.15,10.32,10.32,0,0,0,19.61-4.57,10.32,10.32,0,0,0-.63-3.53l2.43-1.14a15.83,15.83,0,0,1,6.63-1.47l92.77,4.41,15.94-12.3Z"/><path class="e874fa46-2dfd-4109-96a0-01ea632d8d26" d="M162.11,129.53a11.33,11.33,0,0,1-1.3-.07,12.11,12.11,0,0,1-9.28-6.58,11.4,11.4,0,0,1-1.29-6l-5,.78,12-17.67a17.07,17.07,0,0,1,14.87-8.65H197a12.5,12.5,0,0,0,12-9.22L211.46,73a1.54,1.54,0,0,1,3,.8L212,82.93a15.58,15.58,0,0,1-15,11.5H172.1a14,14,0,0,0-12.24,7.18l-8.08,11.91,2.39-.37-.58,2.26a8.25,8.25,0,0,0,.69,6.06,9,9,0,0,0,6.86,4.92,8.82,8.82,0,0,0,9.83-8.78,9,9,0,0,0-.53-3l-.49-1.33,3.72-1.73a17.41,17.41,0,0,1,7.28-1.61L255,111.77a1.54,1.54,0,0,1,1.51,1.58,1.49,1.49,0,0,1-1.58,1.51l-74-1.84a14.32,14.32,0,0,0-5.94,1.32l-1.22.57a11.71,11.71,0,0,1,.31,2.7,11.91,11.91,0,0,1-11.95,11.92Z"/><path class="e9f4f714-f7f7-4960-98c1-b6f4b5b2ba77" d="M139.84,94.2a17.67,17.67,0,1,1,17.67-17.67A17.69,17.69,0,0,1,139.84,94.2Z"/><path class="e874fa46-2dfd-4109-96a0-01ea632d8d26" d="M139.84,60.4a16.13,16.13,0,1,1-16.13,16.13A16.12,16.12,0,0,1,139.84,60.4m0-3.09a19.22,19.22,0,1,0,19.21,19.22,19.24,19.24,0,0,0-19.21-19.22Z"/><path class="e874fa46-2dfd-4109-96a0-01ea632d8d26" d="M139.84,66.35l-.44,0a5,5,0,0,1,.44,2,5.1,5.1,0,0,1-5.1,5.1,5,5,0,0,1-3.15-1.11A8.79,8.79,0,0,0,131.2,75a8.64,8.64,0,1,0,8.64-8.63Z"/><path class="e874fa46-2dfd-4109-96a0-01ea632d8d26" d="M224.59,94.58a11.2,11.2,0,0,0,2.18.54,16.58,16.58,0,0,0,4.28,0c-1.35-.46-2.69-.86-4-1.41a12.72,12.72,0,0,1-1.77-.89c-.52-.32-1-.78-1.06-1s0,.09.09,0a2.53,2.53,0,0,1,.38-.31,6.84,6.84,0,0,1,1.61-.67,24.74,24.74,0,0,1,3.83-.78,51.39,51.39,0,0,1,8-.37,30.17,30.17,0,0,1,4,.36,11.7,11.7,0,0,1,1.94.48,2.12,2.12,0,0,1,1.49,1.26,2.42,2.42,0,0,0-1.12-2,10.57,10.57,0,0,0-1.93-1.15,19.66,19.66,0,0,0-4.18-1.25,27.63,27.63,0,0,0-8.61-.26,18.88,18.88,0,0,0-4.33,1.06,9.38,9.38,0,0,0-2.16,1.2,3.57,3.57,0,0,0-1,1.28,2.47,2.47,0,0,0-.23,1.09,2.35,2.35,0,0,0,.3,1.06A4,4,0,0,0,224.59,94.58Z"/><path class="e874fa46-2dfd-4109-96a0-01ea632d8d26" d="M289.51,102.84c-3.29-.1-6.57-.21-9.86-.27-11.42-.25-46.59-.66-58-.69s-22.83.1-34.24.35l-8.56.19-4.28.13a13.29,13.29,0,0,0-4.42.75c-5.78,2-9.82,8.69-9.42,15.27a16.64,16.64,0,0,1,3-8.85,12.66,12.66,0,0,1,6.82-5,12.18,12.18,0,0,1,4-.43l4.28.13,8.56.19c11.41.25,22.83.32,34.24.35s46.58.26,58,0c3.29-.06,6.57-.17,9.86-.27Z"/><path class="e874fa46-2dfd-4109-96a0-01ea632d8d26" d="M285.3,93.32a22.07,22.07,0,0,0-9.49-5.5L180.06,61c-9.23-12.3-30.2-21.38-46.49-20A49.17,49.17,0,0,1,119.7,40c-7.1-1.3-13.82-2.52-20.75,5.47-22.55,2.94-40.51,33-40.51,56.7V271.06c2,1.74,4.07,3.44,6.17,5.08v-174c0-21.47,16.69-49.08,36.17-50.69l1.34-.11.83-1c3.12-3.95,5.71-5.12,9-5.12a39.53,39.53,0,0,1,6.63.86,55.45,55.45,0,0,0,15.51,1.15C148.6,46,168,54.5,175.65,65.47l.63.92,97.86,27.38a15.74,15.74,0,0,1,6.83,4l6,5.9-6.18,5.6a16.2,16.2,0,0,1-12.86,4.1l-12.7-1.55-61.66,10.42a66,66,0,0,0-36.41,19.05l-2.93,3a48.53,48.53,0,0,0-13.91,34.12V309.62q3.08.53,6.18.93V178.36a42.39,42.39,0,0,1,12.14-29.8l2.93-3a59.89,59.89,0,0,1,33-17.28L255.37,118l11.8,1.44a22.39,22.39,0,0,0,17.77-5.66l11-10Z"/><path class="e874fa46-2dfd-4109-96a0-01ea632d8d26" d="M151,232.55c0,22.51,18.27,41,41.3,42.46,1.53,21.13,19.18,38.06,41.19,39.47a40.68,40.68,0,0,0,1.65,8.86q2.85-1.23,5.65-2.56a34.7,34.7,0,0,1-1.26-9.28v-3.07h-3.08c-21,0-38.11-16.33-38.11-36.4V269H195.3c-19.93,0-36.34-14.69-38-33.34H323.14q1.33-3,2.53-6.14H151Z"/><path class="e874fa46-2dfd-4109-96a0-01ea632d8d26" d="M214,259.29l.78,3c5.73,21.76,28.1,35,50.74,30.54a41.33,41.33,0,0,0,5,9.89c1.63-1.25,3.25-2.52,4.84-3.82a34.7,34.7,0,0,1-4.74-10.49l-.78-3-3,.79c-19.28,5.07-38.89-5-45.21-22.57l100.87-26.55c1.05-2.36,2.05-4.73,3-7.14Z"/><path class="e874fa46-2dfd-4109-96a0-01ea632d8d26" d="M163.17,310.64c-10.22-4.4-20.94-4.8-30.57-1.2-11.72-21-35.22-31.1-55-23.72a51.57,51.57,0,0,0-24.46-22.53,41.3,41.3,0,0,0-25.78-2.64q2.16,3.29,4.45,6.47a34.82,34.82,0,0,1,18.49,2.75,45,45,0,0,1,22.42,22.09l1.55,3.23,3.23-1.55c17.77-8.54,40.31,1.36,50.25,22l1.55,3.23,3.23-1.55c8.52-4.1,18.4-4.11,27.83,0a44.47,44.47,0,0,1,21,19.35c2.59-.2,5.15-.46,7.7-.76A52.08,52.08,0,0,0,163.17,310.64Z"/><path class="e874fa46-2dfd-4109-96a0-01ea632d8d26" d="M201,234.53V151.11a7.57,7.57,0,0,1,7.56-7.57h62.62a7.57,7.57,0,0,1,7.56,7.57v83.42h6V202.92l.2,0a3,3,0,0,0,3-3V184.73a3,3,0,0,0-3-3l-.2,0v-.88l.2,0a3,3,0,0,0,3-3V162.7a3,3,0,0,0-3-3l-.2,0v-8.63a13.55,13.55,0,0,0-13.53-13.53H208.52A13.54,13.54,0,0,0,195,151.11v83.42Z"/><polygon class="f11b436b-982c-476f-9cff-dab454791069" points="214.33 171.7 181.49 167.69 214.33 163.69 218.33 130.85 222.34 163.69 255.18 167.69 222.34 171.7 218.33 204.54 214.33 171.7"/><path class="e874fa46-2dfd-4109-96a0-01ea632d8d26" d="M218.33,143.54,221,165.07l21.52,2.62L221,170.32l-2.63,21.52-2.62-21.52-21.53-2.63,21.53-2.62,2.62-21.53m0-25.38-3.05,25L213,162.31l-19.14,2.33-25,3.05,25,3.05L213,173.08l2.33,19.14,3.05,25,3-25,2.33-19.14,19.15-2.34,25-3.05-25-3.05-19.15-2.33-2.33-19.14-3-25Z"/></svg>