<svg id="bac3444c-3794-485d-b3a7-5cfcaf5cafdc" data-name="Layer 1" xmlns="http://www.w3.org/2000/svg" xmlns:xlink="http://www.w3.org/1999/xlink" viewBox="0 0 1080 1080" width="800" height="800"><defs><style>.af8cf15d-0b11-4ff1-82ca-2b7c281f1776{fill:url(#f5110e09-92aa-4e5d-ba2e-6fcccecd22a1);}.b8ec4c97-38fe-41f0-af3a-8ab4c018350f{fill:#606060;}.a8a1b0b8-2cfa-4ad4-8e2e-a3d763818d55{fill:#ff89b4;}.e53b2f65-692d-4c72-b6d4-090157bb9538{fill:#3c3c3a;}.a5b40ed3-66d3-435f-b3a1-f761231cc175{fill:#fff;}.b5e27273-5c61-4883-9dcd-81304ee59758{fill:#fd87b2;}.b20971fc-4ca8-48d4-b5d7-88f9840322bf{fill:#fabb04;}.acce8c4d-61bb-4620-813d-5bd63b66bf0b{fill:#ffbd00;}</style><radialGradient id="f5110e09-92aa-4e5d-ba2e-6fcccecd22a1" cx="540.73" cy="544.37" r="497.2" gradientTransform="translate(-43.59 -54.41) scale(1.08 1.09)" gradientUnits="userSpaceOnUse"><stop offset="0" stop-color="#fff"/><stop offset="0.76" stop-color="#fff"/><stop offset="0.79" stop-color="#fff" stop-opacity="0.9"/><stop offset="0.86" stop-color="#fff" stop-opacity="0.64"/><stop offset="0.95" stop-color="#fff" stop-opacity="0.23"/><stop offset="1" stop-color="#fff" stop-opacity="0"/></radialGradient></defs><rect class="af8cf15d-0b11-4ff1-82ca-2b7c281f1776" x="0.5" width="1079.25" height="1079.25"/><ellipse class="b8ec4c97-38fe-41f0-af3a-8ab4c018350f" cx="300.04" cy="658.16" rx="58.01" ry="19.11"/><path class="a8a1b0b8-2cfa-4ad4-8e2e-a3d763818d55" d="M300,677.27a161.26,161.26,0,0,1-24.69-1.84L401.82,341.79l27.11,10.3L305.71,677.17C303.84,677.23,302,677.27,300,677.27Z"/><path class="e53b2f65-692d-4c72-b6d4-090157bb9538" d="M302.58,677.23,425.19,353.78l-21.69-8.25L278.28,675.87c-2-.27-4-.57-5.86-.9L399.1,340.76l1-2.71,32.53,12.36L308.87,677C306.8,677.13,304.71,677.19,302.58,677.23Z"/><path class="a8a1b0b8-2cfa-4ad4-8e2e-a3d763818d55" d="M595.06,634.87,600,510.6a17.82,17.82,0,0,1-3-9.86c0-.39.09-.75.12-1.12L525.22,383.94l24.64-15.31,71.81,115.58a17.9,17.9,0,0,1,11.07,16.53,17.66,17.66,0,0,1-3.8,10.89l-4.79,121.49a39.78,39.78,0,0,1-6,19.56l-15.89,25.44H568.94v-3.23a25.53,25.53,0,0,1,10-20.3l7.17-5.48Z"/><path class="e53b2f65-692d-4c72-b6d4-090157bb9538" d="M566,674.89a28.62,28.62,0,0,1,11.18-22.61l6.75-5.15L592.19,634,597,511.38a20.65,20.65,0,0,1-2.95-10.64c0-.15,0-.29,0-.45L521.23,383l29.56-18.37,72.87,117.28a20.72,20.72,0,0,1,12,18.82,20.46,20.46,0,0,1-3.84,11.9l-4.75,120.59a42.84,42.84,0,0,1-6.47,21L603.84,681H566Zm49.62-23.74A37,37,0,0,0,621.25,633l4.83-122.42.57-.73a14.85,14.85,0,0,0-6.09-23l-.86-.36L548.93,372.63l-19.71,12.24,70.83,114-.17,1.86a14.94,14.94,0,0,0,2.49,8.26l.52.78-5,126-9.31,14.9-7.87,6.24a22.8,22.8,0,0,0-8.9,18v.33h28.78Z"/><path class="a8a1b0b8-2cfa-4ad4-8e2e-a3d763818d55" d="M489.26,649.11l13.52-15.69,4.84-122.84a17.77,17.77,0,0,1-3-9.84,18.06,18.06,0,0,1,.74-4.85l-32-87.32,27.24-10,32,87.43a17.72,17.72,0,0,1,3.93,25.62l-4.83,122.66a29.65,29.65,0,0,1-7.18,18.22l-22,25.59H446.09l1.62-3A43.63,43.63,0,0,1,473.41,654Z"/><path class="e53b2f65-692d-4c72-b6d4-090157bb9538" d="M445.16,673.72a46.16,46.16,0,0,1,27.4-22.53l15.05-4.6,12.31-14.3,4.76-120.93a20.66,20.66,0,0,1-2.93-10.62,19.65,19.65,0,0,1,.61-4.71L469.7,406.85l32.69-12,32.7,89.32a20.78,20.78,0,0,1,8.22,16.54,20.45,20.45,0,0,1-3.84,11.92l-4.8,121.76a32.79,32.79,0,0,1-7.88,20L503.89,681H441.25Zm77.24-23.08a27,27,0,0,0,6.47-16.45l4.87-123.59.57-.73a14.8,14.8,0,0,0,3.2-9.13A15,15,0,0,0,531,488.41l-.75-.52-31.34-85.57-21.79,8,31.3,85.48-.25.9a14.58,14.58,0,0,0-.64,4.06A14.82,14.82,0,0,0,510,509l.51.78-4.91,124.8-14.73,17.09-16.66,5.1A40.41,40.41,0,0,0,451,675.22h50.27Z"/><path class="a5b40ed3-66d3-435f-b3a1-f761231cc175" d="M648.72,339c17.33,0,31.64-10.91,33.4-24.87h4.68c16.84,0,30.72-10.69,32.24-24.3h6.06c19,0,34.54-12.81,34.54-28.55V251.06H632.38l2.19,88Z"/><path class="e53b2f65-692d-4c72-b6d4-090157bb9538" d="M635.35,254H756.74v7.35c0,14.17-14.17,25.65-31.64,25.65h-8.82v.41c0,13.19-13.2,23.89-29.48,23.89h-7.4c0,13.74-13.74,24.88-30.68,24.88H637.4l-2-82.18m-6-5.8.15,6,2.05,82.17.14,5.66h17c17.76,0,32.59-10.73,35.83-24.88h2.25c17.27,0,31.67-10.49,34.7-24.3h3.6c20.64,0,37.44-14.11,37.44-31.45V248.16H629.4Z"/><path class="b8ec4c97-38fe-41f0-af3a-8ab4c018350f" d="M470,217.74a102.57,102.57,0,0,1,57.13,9.94c36.33,18,77.48,23.88,117.83,20l72.25-6.94,1,10.12C720,270.37,702,288.06,678,290.38l-12.14,1.16,0,.56c1.75,18.18-15,34.66-37.44,36.82l-10.19,1c1.82,18.92-15.63,36.07-39,38.32l-7.37.7a102.73,102.73,0,0,1-192.29-60.8C384.82,261,422.89,223,470,217.74Z"/><path class="e53b2f65-692d-4c72-b6d4-090157bb9538" d="M403,390.24a104.76,104.76,0,0,1-26.26-82.44c5.35-48.48,44.43-87.57,92.93-93a105.74,105.74,0,0,1,58.73,10.23c34.17,16.92,74.36,23.73,116.27,19.72l75.13-7.22,1.25,13c1,10.32-3,20.47-11.22,28.56-8.06,7.92-19.28,12.94-31.58,14.12l-9.35.9c.17,8.86-3.56,17.46-10.64,24.43-7.54,7.41-18,12.11-29.54,13.21l-7.44.72c0,19.31-18,36.31-41.73,38.58l-5.84.56A105.62,105.62,0,0,1,403,390.24ZM645.22,250.57c-43,4.13-84.26-2.88-119.4-20.29a99.83,99.83,0,0,0-55.52-9.66h0c-45.82,5.08-82.74,42-87.79,87.81a99.83,99.83,0,0,0,186.86,59.1l.73-1.35,8.9-.85c21.71-2.09,38-17.86,36.36-35.16l-.28-2.89L628.17,326c10.18-1,19.42-5.09,26-11.58,6.44-6.33,9.56-14.17,8.75-22.63l-.28-2.89,15-1.44c11-1.06,20.95-5.49,28.07-12.49,7-6.84,10.34-15.32,9.52-23.87l-.7-7.22Z"/><path class="a5b40ed3-66d3-435f-b3a1-f761231cc175" d="M361,384.61a22.5,22.5,0,0,1,44.64-4,22.48,22.48,0,0,1,18.09,18.09,22.5,22.5,0,1,1-26.15,26.14,22.45,22.45,0,0,1-18.08-18.08A22.51,22.51,0,0,1,361,384.61Z"/><path class="e53b2f65-692d-4c72-b6d4-090157bb9538" d="M395.11,427.24A25.48,25.48,0,0,1,377,409.16a25.4,25.4,0,1,1,31-31,25.51,25.51,0,0,1,18.09,18.09,25.4,25.4,0,1,1-31,31Zm-31.25-42.63A19.58,19.58,0,0,0,380,403.87l2,.36.35,2A19.66,19.66,0,0,0,398.06,422l2,.36.36,2a19.6,19.6,0,1,0,22.77-22.78l-2-.36-.36-2a19.62,19.62,0,0,0-15.74-15.74l-2-.36-.36-2a19.6,19.6,0,0,0-38.89,3.51Z"/><path class="a5b40ed3-66d3-435f-b3a1-f761231cc175" d="M507.16,407.62a42.91,42.91,0,0,0,17-3.43c10.85-4.64,18.53-12.83,21.46-22.75l7.59,1.5A54.49,54.49,0,0,0,563.75,384c19.59,0,35.65-10.66,40-26.19l9.51,1.88a58.2,58.2,0,0,0,11.27,1.12c21.93,0,39.72-12.49,43.27-30.37l2.59-13.07L496.64,282.91l-58.75,87.85,32.35,22.75,11.93,7.1A49,49,0,0,0,507.16,407.62Z"/><path class="e53b2f65-692d-4c72-b6d4-090157bb9538" d="M498,286.14l169,33.5-2,10.22c-3.33,16.79-20.41,28-40.43,28a54.74,54.74,0,0,1-10.7-1.06l-12.28-2.43-.11.56c-3.1,15.64-19,26.12-37.66,26.12a51.21,51.21,0,0,1-10-1l-10.3-2.05h0c-2.11,10.63-9.9,19-20.45,23.47a40.29,40.29,0,0,1-15.87,3.2,46.3,46.3,0,0,1-23.5-6.6l-11.75-7-30-21.11L498,286.14m-2.67-6.45-2.16,3.22-56.09,83.88-3.15,4.71,4.64,3.26,30,21.12.18.12.19.12,11.75,7a51.9,51.9,0,0,0,26.47,7.41,45.88,45.88,0,0,0,18.15-3.66c10.74-4.59,18.6-12.47,22.25-22.08l5.09,1a57.23,57.23,0,0,0,11.1,1.1c19.83,0,36.31-10.36,41.94-25.74l7,1.38a60.75,60.75,0,0,0,11.83,1.17c23.33,0,42.3-13.45,46.12-32.71l2-10.22,1.13-5.69L668.08,314l-169-33.5-3.79-.76Z"/><path class="b8ec4c97-38fe-41f0-af3a-8ab4c018350f" d="M427.15,371.34l22.21,4.21c23.12,8,46.93-.2,53.19-18.29h0l10.1,3.49c22.21,7.68,45.09-.19,51.1-17.57l.18-.54,12,4.16c23.84,8.25,48.4-.19,54.86-18.86l3.34-9.67L468.56,261Z"/><path class="e53b2f65-692d-4c72-b6d4-090157bb9538" d="M450.3,372.81c21.6,7.45,43.79.05,49.51-16.5l.95-2.74L513.6,358c10.13,3.49,20.69,3.71,29.73.61,8.79-3,15.07-8.84,17.87-16.93l.95-2.73,14.76,5.1c22.29,7.73,45.25.06,51.17-17.07l2.4-6.93L472.15,265.31,468.89,258l169,58.44-4.29,12.41c-7,20.14-33.22,29.41-58.55,20.66l-9.38-3.25c-3.58,8.21-10.75,14.48-20.42,17.81-10.27,3.52-22.17,3.3-33.52-.62l-7.49-2.59c-5.92,13-20.5,20.59-37.08,20.59a57.52,57.52,0,0,1-18.72-3.2L430.3,372l.13-.43,13.81-.89Z"/><ellipse class="b8ec4c97-38fe-41f0-af3a-8ab4c018350f" cx="721.05" cy="680.1" rx="54.84" ry="18.07"/><path class="b5e27273-5c61-4883-9dcd-81304ee59758" d="M721.05,698.17a159.39,159.39,0,0,0,16.43-.83v-57.4a24.66,24.66,0,0,1,7-17.25l1.58-1.62a34.18,34.18,0,0,1,18.74-9.81l33-5.58,6.61.8a10.4,10.4,0,0,0,8.27-2.63l4.64-4.21-4.49-4.42a10.23,10.23,0,0,0-4.4-2.55l-52.25-14.61a26.24,26.24,0,0,0-20-11.13c-8.79-.54-16.79-3.6-21.92,2.86-11.8,1-21.06,17-21.06,29v96.85A147.91,147.91,0,0,0,721.05,698.17Z"/><path class="b20971fc-4ca8-48d4-b5d7-88f9840322bf" d="M812.9,595.22a10.23,10.23,0,0,0-4.4-2.55L775,583.31l-.06,2.77-.75,2.2-2,3.08-5,2.44-14.9.53-3.48,1L746,597.57l-1.51,2.67-4.2,5.81,1.93-.3a5.3,5.3,0,0,0,.44,3.86,5.57,5.57,0,0,0,10.58-2.46,5.52,5.52,0,0,0-.34-1.91l1.32-.61a8.51,8.51,0,0,1,3.58-.8l40.11.19.88.48-.87,1.18,6.61.8a10.4,10.4,0,0,0,8.27-2.63l4.64-4.21Z"/><path class="a5b40ed3-66d3-435f-b3a1-f761231cc175" d="M735.55,594.36A9.39,9.39,0,1,1,745,585,9.4,9.4,0,0,1,735.55,594.36Z"/><path class="e53b2f65-692d-4c72-b6d4-090157bb9538" d="M735.56,576.27a8.71,8.71,0,1,1-8.71,8.7,8.7,8.7,0,0,1,8.71-8.7m0-1.37A10.08,10.08,0,1,0,745.63,585a10.09,10.09,0,0,0-10.07-10.07Z"/><circle class="e53b2f65-692d-4c72-b6d4-090157bb9538" cx="735.56" cy="584.14" r="4.66"/><circle class="a5b40ed3-66d3-435f-b3a1-f761231cc175" cx="732.8" cy="580.6" r="2.76"/><path class="e53b2f65-692d-4c72-b6d4-090157bb9538" d="M781.3,594.72a6.55,6.55,0,0,0,1.18.29,8.93,8.93,0,0,0,2.31,0c-.73-.25-1.46-.46-2.13-.76a5.74,5.74,0,0,1-1-.48c-.28-.17-.56-.42-.57-.54s0,0,0,0a1.27,1.27,0,0,1,.21-.17,3.67,3.67,0,0,1,.87-.37,13.54,13.54,0,0,1,2.07-.41,28.49,28.49,0,0,1,4.34-.21,17.66,17.66,0,0,1,2.18.2,6.44,6.44,0,0,1,1,.26,1.16,1.16,0,0,1,.8.68,1.31,1.31,0,0,0-.61-1.07,5.45,5.45,0,0,0-1-.61,10.21,10.21,0,0,0-2.25-.68,15.12,15.12,0,0,0-4.65-.14,10.51,10.51,0,0,0-2.34.57,5,5,0,0,0-1.16.65,1.85,1.85,0,0,0-.57.69,1.51,1.51,0,0,0-.12.59,1.27,1.27,0,0,0,.16.57A2.21,2.21,0,0,0,781.3,594.72Z"/><path class="e53b2f65-692d-4c72-b6d4-090157bb9538" d="M814.82,593.27a13,13,0,0,0-5.59-3.24L757.9,575.67c-5.29-6.75-16.81-11.7-25.82-10.91a26.67,26.67,0,0,1-7.21-.56c-3.86-.71-7.88-1.45-11.92,3-12.71,1.95-22.41,18.24-22.41,31.63v96.29c1.75.39,3.6.73,5.49,1V598.82c0-11.16,8.55-25.48,18.53-26.3l1.19-.09.74-.93c1.41-1.79,2.5-2.36,4-2.36a20.45,20.45,0,0,1,3.36.45,30.56,30.56,0,0,0,8.66.63c7.37-.59,17.61,3.85,21.45,9.4l.56.81,18.94,5.3-.61,2.26a6.74,6.74,0,0,1-6.5,5H753a9.21,9.21,0,0,0-8,4.67l-6.47,9.53,2.7-.42a6.11,6.11,0,0,0,.7,3.24,6.49,6.49,0,0,0,5,3.55,5.37,5.37,0,0,0,.7,0,6.42,6.42,0,0,0,6.28-7.89l.66-.31a7.62,7.62,0,0,1,3.21-.71l25.86.64-19.22,3.25a36.65,36.65,0,0,0-20.24,10.59l-1.58,1.62a27.26,27.26,0,0,0-7.82,19.16v57.65q2.81-.24,5.49-.57V639.93a21.79,21.79,0,0,1,6.25-15.33l1.58-1.61a31.19,31.19,0,0,1,17.23-9l32.66-5.52,6.22.76a13.21,13.21,0,0,0,10.44-3.32l6.78-6.16Zm-10,10.49-7-.85-5.62,1L757.75,603a9.43,9.43,0,0,0-3.94.87l-2,.94.26.71a4.74,4.74,0,0,1-8.72,3.71A4.49,4.49,0,0,1,743,606l.31-1.22-1.29.2,4.36-6.43a7.59,7.59,0,0,1,6.61-3.88h13.42a8.41,8.41,0,0,0,8.11-6.2l.61-2.25,32.65,9.13a7.45,7.45,0,0,1,3.21,1.87l1.94,1.9L811,599c-6.16-.13-25.15-.36-31.31-.37s-12.32.05-18.48.18l-4.62.11-2.31.07a7,7,0,0,0-2.38.4c-3.12,1.1-5.3,4.7-5.09,8.25a9,9,0,0,1,1.6-4.78,6.77,6.77,0,0,1,3.69-2.67,6.36,6.36,0,0,1,2.18-.24l2.31.07,4.62.11c6.16.13,12.32.17,18.48.19s25.15.14,31.31,0l1.56,0-1.67,1.52A7.57,7.57,0,0,1,804.82,603.76Z"/><path class="b8ec4c97-38fe-41f0-af3a-8ab4c018350f" d="M696.88,506.72l0-.88a10.18,10.18,0,0,1,1.47-7.79,13.11,13.11,0,0,1,5.22-4.5,16.74,16.74,0,0,0,5.33-3.85,6.79,6.79,0,0,0,1.76-6,7.35,7.35,0,0,0-2.88-5.14c-1.55-1.09-3.65-1.42-6.32-1s-4.58,1.16-5.7,2.19a5.44,5.44,0,0,0-1.93,2.92L693.7,484a13.12,13.12,0,0,1-1.59,4.64,4.39,4.39,0,0,1-3.13,2,16.31,16.31,0,0,1-5.62-.43q-6.9-1.46-7.49-5.14a9.35,9.35,0,0,1,.12-3.4c.26-1.19.47-2.19.64-3a24.32,24.32,0,0,1,1.69-4.32,25,25,0,0,1,3.55-5.62,24.65,24.65,0,0,1,6.25-5,26.47,26.47,0,0,1,9.57-3.37q11.49-1.83,19.92,4.37a24,24,0,0,1,10,15.95,22.15,22.15,0,0,1-.31,8.88,18.63,18.63,0,0,1-3.07,6.88,27.39,27.39,0,0,1-7.9,7.49l-1.65.82a20.11,20.11,0,0,1,.29,2.84,5.38,5.38,0,0,1-.64,2.27,4.62,4.62,0,0,1-2.45,2.05,20.73,20.73,0,0,1-5,1.3,19.37,19.37,0,0,1-5.13.26,4.24,4.24,0,0,1-2.94-1.42,6.68,6.68,0,0,1-1.3-2.18A23.23,23.23,0,0,1,696.88,506.72Zm2.66,19.41a5.19,5.19,0,0,1,2.71-2.93,23.66,23.66,0,0,1,6.86-1.88c3.17-.5,5.58-.17,7.21,1s2.78,3.8,3.42,7.84a14.89,14.89,0,0,1,0,6.62,5.51,5.51,0,0,1-2.85,3.34,24.91,24.91,0,0,1-6.76,1.81c-3.12.49-5.62.12-7.52-1.13q-2.13-1.54-2.84-6l-.28-1.73a32.5,32.5,0,0,1-.45-3.82A9.23,9.23,0,0,1,699.54,526.13Z"/><path class="acce8c4d-61bb-4620-813d-5bd63b66bf0b" d="M738.73,529.3a4.64,4.64,0,0,1,3.35-1.35,19,19,0,0,1,5.63,1.28c2.44.85,4,2,4.76,3.45s.7,3.33-.1,5.64l-.47,1.36a27.85,27.85,0,0,1-1.16,3,8,8,0,0,1-1.61,2q-2.21,2-7.32.22t-6.19-4c-.72-1.48-.54-3.8.56-7A11.94,11.94,0,0,1,738.73,529.3Zm14.75-5.94a18,18,0,0,1-4.47-1.07,18.81,18.81,0,0,1-4.17-1.91,3.62,3.62,0,0,1-1.71-2.3,6,6,0,0,1-.09-2.2,20,20,0,0,1,.78-2.67l14.09-39.07a21,21,0,0,1,1.05-2.62,5.59,5.59,0,0,1,1.5-1.72,4,4,0,0,1,2.82-.77,16.69,16.69,0,0,1,4.47,1,17.33,17.33,0,0,1,4.16,1.95,3.78,3.78,0,0,1,1.68,2.38,6.24,6.24,0,0,1,.06,2.3,23.65,23.65,0,0,1-.79,2.71l-14.1,39.07a20.75,20.75,0,0,1-1,2.58,5.35,5.35,0,0,1-1.46,1.63A3.88,3.88,0,0,1,753.48,523.36Z"/><path class="acce8c4d-61bb-4620-813d-5bd63b66bf0b" d="M187.79,734.3l23.94,49.47a11.69,11.69,0,0,1,1.51,4.52q0,3.19-5.15,5.76a11.56,11.56,0,0,1-4.74,1.51,4.72,4.72,0,0,1-2.83-.8,5.23,5.23,0,0,1-1.6-1.68c-.33-.59-.78-1.48-1.37-2.66l-4.61-9.58H168.38l-4.61,9.58c-.59,1.18-1.05,2-1.37,2.57a6.41,6.41,0,0,1-1.6,1.64,4.56,4.56,0,0,1-2.84.84,11.56,11.56,0,0,1-4.74-1.51q-5.15-2.48-5.14-5.67a11.52,11.52,0,0,1,1.51-4.52l23.93-49.56a7.81,7.81,0,0,1,3-3.28,7.9,7.9,0,0,1,4.21-1.24A7.5,7.5,0,0,1,187.79,734.3Zm-7.18,21.28-5.85,12.14h11.79Z"/><path class="acce8c4d-61bb-4620-813d-5bd63b66bf0b" d="M244.09,748a18.75,18.75,0,0,1,14.76,6.78,24.31,24.31,0,0,1,5.89,16.53v15.6a25.63,25.63,0,0,1-.13,3.06,7.37,7.37,0,0,1-.75,2.26c-.83,1.6-3.14,2.39-6.92,2.39q-6.3,0-7.27-3.28a14.56,14.56,0,0,1-.53-4.52v-15.6a7.12,7.12,0,0,0-7.67-7.71,7.76,7.76,0,0,0-5.67,2.13,7.44,7.44,0,0,0-2.17,5.58v15.69a25.17,25.17,0,0,1-.14,3.06,6.39,6.39,0,0,1-.84,2.26c-.77,1.6-3,2.39-6.82,2.39s-6-.79-6.83-2.39a7.78,7.78,0,0,1-.75-2.35,25.17,25.17,0,0,1-.14-3.06V755.4a24.17,24.17,0,0,1,.14-3,6,6,0,0,1,.84-2.26c.82-1.47,3.1-2.21,6.82-2.21s5.82.68,6.65,2a7.09,7.09,0,0,1,.89,3.64,9.14,9.14,0,0,1,1.59-1.77,16.07,16.07,0,0,1,2.4-1.87A11.66,11.66,0,0,1,244.09,748Z"/><path class="acce8c4d-61bb-4620-813d-5bd63b66bf0b" d="M286.42,739.31a3.8,3.8,0,0,1-2.35,1.82,19.2,19.2,0,0,1-9,0,3.78,3.78,0,0,1-2.35-1.86,7.45,7.45,0,0,1-.79-2.35,33.51,33.51,0,0,1,0-6.12,7.11,7.11,0,0,1,.75-2.26q1.25-2.38,6.91-2.39c3.73,0,6,.8,6.74,2.39a7,7,0,0,1,.84,2.35,33.51,33.51,0,0,1,0,6.12A6.91,6.91,0,0,1,286.42,739.31Zm-14.59,16.45a25.17,25.17,0,0,1,.14-3.06,8.08,8.08,0,0,1,.75-2.35Q274,748,279.63,748c2.84,0,4.85.51,6,1.51a4.88,4.88,0,0,1,1.6,3.81c.06.59.09,1.45.09,2.57v31a25.17,25.17,0,0,1-.14,3.06,7,7,0,0,1-.84,2.35c-.77,1.54-3,2.3-6.82,2.3s-6-.79-6.83-2.39A8.11,8.11,0,0,1,272,790a25.08,25.08,0,0,1-.14-3.11Z"/><path class="acce8c4d-61bb-4620-813d-5bd63b66bf0b" d="M309.69,754.16q4.15-6.3,10-6.29a14.55,14.55,0,0,1,13.48,7.71,28.58,28.58,0,0,1,2.35-2.79,19,19,0,0,1,4.39-3.19,12.2,12.2,0,0,1,6.2-1.73A15.15,15.15,0,0,1,358,753.32q4.78,5.45,4.79,18v15.51a25.17,25.17,0,0,1-.14,3.06,7,7,0,0,1-.84,2.35c-.77,1.6-3,2.39-6.82,2.39s-6-.82-6.83-2.48a8.39,8.39,0,0,1-.75-2.35,25.17,25.17,0,0,1-.14-3.06V771.27q0-7.71-5.49-7.71c-2.07,0-3.48.68-4.21,2a12.22,12.22,0,0,0-1.11,5.76v15.51a27.85,27.85,0,0,1-.13,3.11,7.06,7.06,0,0,1-.85,2.3c-.83,1.6-3.13,2.39-6.91,2.39s-6-.82-6.83-2.48a8.39,8.39,0,0,1-.75-2.35,25.63,25.63,0,0,1-.13-3.06V771.27q0-7.71-5.5-7.71-5.33,0-5.32,7.71V787a25.63,25.63,0,0,1-.13,3.06,7.22,7.22,0,0,1-.84,2.35c-.89,1.54-3.2,2.3-6.92,2.3s-6-.79-6.83-2.39a8.44,8.44,0,0,1-.75-2.3,25.58,25.58,0,0,1-.13-3.11v-31.2a25.63,25.63,0,0,1,.13-3.06,6.39,6.39,0,0,1,.84-2.26c.89-1.6,3-2.39,6.3-2.39s5.46.53,6.47,1.59A6.5,6.5,0,0,1,309.69,754.16Z"/><path class="acce8c4d-61bb-4620-813d-5bd63b66bf0b" d="M400.2,752.92c.35-3.31,2.69-5,7-5a18.12,18.12,0,0,1,5.14.53,3.69,3.69,0,0,1,2.35,1.86,7.77,7.77,0,0,1,.8,2.35,25.63,25.63,0,0,1,.13,3.06v31a25.63,25.63,0,0,1-.13,3.06,8.39,8.39,0,0,1-.75,2.35q-1.25,2.31-6.08,2.31t-6.47-1.2a4.76,4.76,0,0,1-1.9-3.5q-3.29,4.69-11,4.7t-14.23-7a23.34,23.34,0,0,1,0-32.49q6.62-7,14.5-7a13.75,13.75,0,0,1,5.49,1.07,12.19,12.19,0,0,1,3.46,2A12.79,12.79,0,0,1,400.2,752.92Zm-16.14,18.44a7.33,7.33,0,0,0,2.31,5.27A7.51,7.51,0,0,0,392,779a7,7,0,0,0,5.45-2.39,7.69,7.69,0,0,0,2.18-5.28,8.19,8.19,0,0,0-2.09-5.36,6.93,6.93,0,0,0-5.58-2.48,7.2,7.2,0,0,0-5.68,2.48A8.1,8.1,0,0,0,384.06,771.36Z"/><path class="acce8c4d-61bb-4620-813d-5bd63b66bf0b" d="M422.71,733.77a25.17,25.17,0,0,1,.14-3.06,8.39,8.39,0,0,1,.75-2.35c.83-1.59,3.13-2.39,6.92-2.39,3.6,0,5.85.8,6.73,2.39a6.78,6.78,0,0,1,.84,2.4,26.29,26.29,0,0,1,.14,3.1v41c0,2.12.18,3.47.53,4s1.14.84,2.35.84a15.4,15.4,0,0,1,2.44.13,4.38,4.38,0,0,1,1.5.76c1.19.77,1.78,2.86,1.78,6.29q0,5.58-1.78,6.83-2.3,1.59-11,.53-6.82-.89-8.86-4.52-2.49-4.35-2.49-13.83Z"/><path class="acce8c4d-61bb-4620-813d-5bd63b66bf0b" d="M452.06,790.51a3.68,3.68,0,0,1-1.69-3.37c0-1.54,1.12-3.87,3.37-7a3.48,3.48,0,0,1,3.15-1.5q2.17,0,5.89,2.17a13.66,13.66,0,0,0,6.74,2.17q5.42,0,5.41-2.13,0-1.68-5.94-2.48a29.06,29.06,0,0,1-11.08-4.16,11.87,11.87,0,0,1-4.26-5,18.2,18.2,0,0,1-1.68-8.11q0-14,19.24-14a31.22,31.22,0,0,1,12.94,3q3.11,1.42,3.1,3.55a10.46,10.46,0,0,1-1.95,5.23q-1.95,3.1-4,3.1a11.89,11.89,0,0,1-3.94-1.33,14.85,14.85,0,0,0-6.25-1.33q-5.24,0-5.23,2c0,1.78,2,2.93,6,3.46a33,33,0,0,1,11.35,3.37,10,10,0,0,1,4.3,4.3,15.43,15.43,0,0,1,1.73,7.67,16.45,16.45,0,0,1-1.73,7.84,11.15,11.15,0,0,1-4.83,4.83q-5.67,2.76-14.23,2.75A30.42,30.42,0,0,1,452.06,790.51Z"/><path class="acce8c4d-61bb-4620-813d-5bd63b66bf0b" d="M543.45,748a18.75,18.75,0,0,1,14.76,6.78,24.32,24.32,0,0,1,5.9,16.53v15.6a25.63,25.63,0,0,1-.13,3.06,7.16,7.16,0,0,1-.76,2.26c-.83,1.6-3.13,2.39-6.91,2.39q-6.3,0-7.27-3.28a14.26,14.26,0,0,1-.53-4.52v-15.6a7.13,7.13,0,0,0-7.67-7.71,7.73,7.73,0,0,0-5.67,2.13,7.45,7.45,0,0,0-2.18,5.58v15.69a25.63,25.63,0,0,1-.13,3.06,6.39,6.39,0,0,1-.84,2.26c-.77,1.6-3,2.39-6.83,2.39s-6-.79-6.82-2.39a8.13,8.13,0,0,1-.76-2.35,25.63,25.63,0,0,1-.13-3.06V755.4a24.59,24.59,0,0,1,.13-3,6.39,6.39,0,0,1,.84-2.26q1.24-2.2,6.83-2.21,5.4,0,6.65,2a7.09,7.09,0,0,1,.89,3.64,8.8,8.8,0,0,1,1.59-1.77,16.07,16.07,0,0,1,2.4-1.87A11.63,11.63,0,0,1,543.45,748Z"/><path class="acce8c4d-61bb-4620-813d-5bd63b66bf0b" d="M577.32,753.81a24.34,24.34,0,0,1,33.95,0,24.45,24.45,0,0,1,3.55,30.59,23.93,23.93,0,0,1-9.27,8.42,25.15,25.15,0,0,1-11.3,2.7,24.19,24.19,0,0,1-11.35-2.88,25.19,25.19,0,0,1-9.26-8.51,22.35,22.35,0,0,1-3.77-12.72A22.89,22.89,0,0,1,577.32,753.81ZM588.4,777.7a9.4,9.4,0,0,0,5.76,2.17,9.66,9.66,0,0,0,5.85-2.22,7.7,7.7,0,0,0,2.93-6.56q0-4.33-2.75-6.47a9.5,9.5,0,0,0-5.94-2.13,9.26,9.26,0,0,0-5.94,2.22,7.89,7.89,0,0,0-2.75,6.52A7.65,7.65,0,0,0,588.4,777.7Z"/><path class="acce8c4d-61bb-4620-813d-5bd63b66bf0b" d="M650.19,763.65l-5.77-.36v12.24a6,6,0,0,0,.76,3.45,3.26,3.26,0,0,0,2.83,1.07,28.75,28.75,0,0,1,3.2.13,6.44,6.44,0,0,1,2.35.84q2,1.15,2,5.94c0,3.72-.82,6-2.48,6.83a8.29,8.29,0,0,1-2.35.75,24.59,24.59,0,0,1-3,.13q-9.21,0-14-4.16T629,776.41V763.29a23,23,0,0,1-3.64.27,4.05,4.05,0,0,1-3.23-1.51c-.86-1-1.29-2.72-1.29-5.14a22.1,22.1,0,0,1,.45-5.28,4.68,4.68,0,0,1,1.24-2.34,5.42,5.42,0,0,1,3.54-1.16l2.93.36v-9.13a24.54,24.54,0,0,1,.13-3,5.67,5.67,0,0,1,.84-2.13q1.15-2.21,6.83-2.21,6,0,7.18,3.28a16.38,16.38,0,0,1,.44,4.52v8.69q3.9-.36,5.9-.36a24.57,24.57,0,0,1,3,.14,6.92,6.92,0,0,1,2.35.84q2.31,1.15,2.31,6.82c0,3.73-.8,6-2.4,6.83a8.34,8.34,0,0,1-2.34.75A25.29,25.29,0,0,1,650.19,763.65Z"/><path class="acce8c4d-61bb-4620-813d-5bd63b66bf0b" d="M712.59,748c4.08,0,6.48,1.13,7.19,3.37a15.3,15.3,0,0,1,.53,4.43,13.66,13.66,0,0,1-.58,4.39,4.1,4.1,0,0,1-1.82,2.35,11,11,0,0,1-5.4,1.07l-5.68-.36v23.76a11.43,11.43,0,0,1-.84,5,4.16,4.16,0,0,1-2.57,2.17,15.78,15.78,0,0,1-4.48.53,13.78,13.78,0,0,1-4.39-.57,4.1,4.1,0,0,1-2.34-1.87,6.57,6.57,0,0,1-.85-2.34,26.94,26.94,0,0,1-.13-3.11V763.38H688a5.51,5.51,0,0,1-3.28-1.06c-1.13-1.13-1.69-3.28-1.69-6.48q0-7.26,5.23-7.26h2.93v-4.7a18.24,18.24,0,0,1,4.88-12.37Q701,726,710.2,726a25.63,25.63,0,0,1,3.06.13,7,7,0,0,1,2.35.85c1.59.76,2.39,3,2.39,6.82q0,4.26-1.5,6.12a5.43,5.43,0,0,1-3.91,1.59h-2.48c-2.19,0-3.28.74-3.28,2.22v4.88Z"/><path class="acce8c4d-61bb-4620-813d-5bd63b66bf0b" d="M729.53,753.81a24.34,24.34,0,0,1,34,0A24.45,24.45,0,0,1,767,784.35a23.93,23.93,0,0,1-9.27,8.42,25.15,25.15,0,0,1-11.3,2.7,24.19,24.19,0,0,1-11.35-2.88,25.19,25.19,0,0,1-9.26-8.51,22.35,22.35,0,0,1-3.77-12.72A22.89,22.89,0,0,1,729.53,753.81Zm11.08,23.89a9.4,9.4,0,0,0,5.76,2.17,9.66,9.66,0,0,0,5.85-2.22,7.7,7.7,0,0,0,2.93-6.56q0-4.33-2.75-6.47a9.5,9.5,0,0,0-5.94-2.13,9.26,9.26,0,0,0-5.94,2.22,7.89,7.89,0,0,0-2.75,6.52A7.65,7.65,0,0,0,740.61,777.7Z"/><path class="acce8c4d-61bb-4620-813d-5bd63b66bf0b" d="M797.34,794.5a18.79,18.79,0,0,1-14.84-6.79,24.27,24.27,0,0,1-5.9-16.53V755.67a25.39,25.39,0,0,1,.13-3.1,8.23,8.23,0,0,1,.76-2.31c.82-1.6,3.13-2.39,6.91-2.39q6.21,0,7.27,3.37a14,14,0,0,1,.53,4.52v15.51a7.13,7.13,0,0,0,7.67,7.71,7.79,7.79,0,0,0,5.67-2.12,7.47,7.47,0,0,0,2.18-5.59V755.58a25.63,25.63,0,0,1,.13-3.06,7.22,7.22,0,0,1,.84-2.35c.77-1.53,3-2.3,6.83-2.3s6,.79,6.82,2.39a8.13,8.13,0,0,1,.76,2.35,25.63,25.63,0,0,1,.13,3.06v31.38a24.59,24.59,0,0,1-.13,3,6.24,6.24,0,0,1-.85,2.26c-.88,1.54-3.16,2.3-6.82,2.3s-5.82-.7-6.65-2.12a7.09,7.09,0,0,1-.89-3.64,8.83,8.83,0,0,1-1.59,1.78,24,24,0,0,1-2.4,1.95A11.83,11.83,0,0,1,797.34,794.5Z"/><path class="acce8c4d-61bb-4620-813d-5bd63b66bf0b" d="M856.29,748a18.75,18.75,0,0,1,14.76,6.78,24.32,24.32,0,0,1,5.9,16.53v15.6a25.63,25.63,0,0,1-.13,3.06,7.16,7.16,0,0,1-.76,2.26c-.82,1.6-3.13,2.39-6.91,2.39q-6.3,0-7.27-3.28a14.56,14.56,0,0,1-.53-4.52v-15.6a7.13,7.13,0,0,0-7.67-7.71A7.73,7.73,0,0,0,848,765.6a7.45,7.45,0,0,0-2.18,5.58v15.69a25.63,25.63,0,0,1-.13,3.06,6.39,6.39,0,0,1-.84,2.26c-.77,1.6-3.05,2.39-6.83,2.39s-6-.79-6.82-2.39a8.13,8.13,0,0,1-.76-2.35,25.63,25.63,0,0,1-.13-3.06V755.4a24.59,24.59,0,0,1,.13-3,6.24,6.24,0,0,1,.85-2.26c.82-1.47,3.1-2.21,6.82-2.21s5.82.68,6.65,2a7.09,7.09,0,0,1,.89,3.64,8.8,8.8,0,0,1,1.59-1.77,16.07,16.07,0,0,1,2.4-1.87A11.63,11.63,0,0,1,856.29,748Z"/><path class="acce8c4d-61bb-4620-813d-5bd63b66bf0b" d="M915.38,728.5a3.71,3.71,0,0,1,2.35-1.82,19.16,19.16,0,0,1,8.95,0,3.69,3.69,0,0,1,2.35,1.86,7.77,7.77,0,0,1,.8,2.35A25.63,25.63,0,0,1,930,734v52.92a25.63,25.63,0,0,1-.13,3.06,6.39,6.39,0,0,1-.84,2.26c-.89,1.6-3.39,2.39-7.49,2.39s-6.4-1.44-6.87-4.34c-2.49,2.84-5.94,4.26-10.38,4.26q-8,0-14.54-7a23.33,23.33,0,0,1,0-32.49q6.6-7,14.49-7c4.38,0,7.77,1.48,10.2,4.44V733.86a25.63,25.63,0,0,1,.13-3.06A7.2,7.2,0,0,1,915.38,728.5ZM901,776.68a7.5,7.5,0,0,0,5.59,2.39,7.08,7.08,0,0,0,5.45-2.39,7.69,7.69,0,0,0,2.17-5.28A8.18,8.18,0,0,0,912.1,766a7,7,0,0,0-5.63-2.48A7.13,7.13,0,0,0,900.8,766a8,8,0,0,0-2.13,5.36A7.54,7.54,0,0,0,901,776.68Z"/></svg>